<?xml version="1.0" encoding="utf-8"?>
<svg version="1.1" id="Layer_1" xmlns="http://www.w3.org/2000/svg" xmlns:xlink="http://www.w3.org/1999/xlink" x="0px" y="0px"
	 viewBox="0 0 100 100" style="enable-background:new 0 0 100 125;" xml:space="preserve">
<style type="text/css">
	.st0{fill:#FFFFFF;}
</style>
<path class="st0" d="M94.3,39.3L72.4,29.3c0,0,0,0-0.1,0c-0.1,0-0.1,0-0.2,0c-0.1,0-0.1,0-0.2,0c-0.1,0-0.1,0-0.2,0
	c-0.1,0-0.1,0-0.2,0c-0.1,0-0.1,0-0.2,0c-0.1,0-0.1,0-0.1,0c0,0-0.1,0-0.1,0L50,39.1l-21.3-9.8c0,0,0,0-0.1,0c-0.1,0-0.1,0-0.2,0
	c-0.1,0-0.1,0-0.2,0c-0.1,0-0.1,0-0.2,0c-0.1,0-0.1,0-0.2,0c-0.1,0-0.1,0-0.2,0c0,0-0.1,0-0.1,0c0,0,0,0-0.1,0L5.7,39.3
	C5.3,39.6,5,40,5,40.5v37.7c0,0,0,0,0,0v10.1c0,0,0,0,0,0c0,0.2,0,0.3,0.1,0.5c0,0,0,0.1,0,0.1c0.1,0.1,0.2,0.3,0.3,0.4c0,0,0,0,0,0
	c0,0,0,0,0.1,0c0,0,0.1,0.1,0.1,0.1c0.1,0,0.1,0.1,0.2,0.1c0,0,0.1,0,0.1,0.1c0.1,0,0.3,0.1,0.4,0.1c0,0,0,0,0,0h0l0,0l0,0
	c0.1,0,0.1,0,0.2,0l32.4-5l10.6,4.9c0,0,0,0,0,0c0,0,0.1,0,0.1,0c0.1,0,0.3,0.1,0.4,0.1c0,0,0,0,0,0c0,0,0,0,0,0h0
	c0.1,0,0.1,0,0.2,0l32.4-5l10.6,4.9c0.2,0.1,0.4,0.1,0.5,0.1c0.2,0,0.5-0.1,0.7-0.2c0.4-0.2,0.6-0.6,0.6-1.1V40.5
	C95,40,94.7,39.6,94.3,39.3z M26.9,77.4L7.6,86.3v-45l19.3-8.9V77.4z M48.7,86.3l-19.3-8.9v-45l19.3,8.9V86.3z M70.6,77.4l-19.3,8.9
	v-45l19.3-8.9V77.4z M92.4,86.3l-19.3-8.9v-45l19.3,8.9L92.4,86.3L92.4,86.3z M47.8,16.4c0-0.8,0.3-1.5,0.8-1.9
	c0.5-0.4,1.1-0.7,1.9-0.7c0.9,0,1.6,0.3,2.1,0.8c0.5,0.5,0.7,1.2,0.7,2.2c0,0.8-0.2,1.6-0.6,2.2c-0.4,0.7-1,1.3-1.7,1.9
	c-1.2,0.9-2,1.7-2.4,2.4s-0.6,1.7-0.6,3.1h4.3c0-0.8,0.1-1.5,0.3-1.9c0.2-0.5,0.6-0.9,1.2-1.4c1.1-0.7,2-1.6,2.8-2.7
	c0.7-1.1,1.1-2.2,1.1-3.5c0-1.9-0.6-3.5-1.9-4.6c-1.3-1.1-3-1.7-5.2-1.7c-2.1,0-3.7,0.5-5,1.5c-1.3,1-1.9,2.5-1.9,4.4l0,0.1
	L47.8,16.4L47.8,16.4z M47.9,32.4h4.4v-3.7h-4.4V32.4z M58.5,63.7l2.6-2.6l2.4,2.4l1.7-1.7l-2.4-2.4l2.4-2.4l-1.9-1.9l-2.4,2.4
	l-2.4-2.4l-1.7,1.7l2.4,2.4l-2.6,2.6L58.5,63.7z"/>
</svg>
