<?xml version="1.0" encoding="UTF-8" standalone="no"?>
<!DOCTYPE svg PUBLIC "-//W3C//DTD SVG 1.1//EN"
 "http://www.w3.org/Graphics/SVG/1.1/DTD/svg11.dtd">
<!-- Generated by graphviz version 2.40.1 (20161225.0304)
 -->
<!-- Title: dependencies Pages: 1 -->
<svg width="526pt" height="284pt"
 viewBox="0.00 0.00 526.00 284.00" xmlns="http://www.w3.org/2000/svg" xmlns:xlink="http://www.w3.org/1999/xlink">
<g id="graph0" class="graph" transform="scale(1 1) rotate(0) translate(4 280)">
<title>dependencies</title>
<polygon fill="#ffffff" stroke="transparent" points="-4,4 -4,-280 522,-280 522,4 -4,4"/>
<text text-anchor="start" x="238.0091" y="-42.4" font-family="sans-serif" font-weight="bold" font-size="14.00" fill="#000000">Legend</text>
<polygon fill="#ffffb3" stroke="transparent" points="25,-10 25,-30 45,-30 45,-10 25,-10"/>
<text text-anchor="start" x="48.629" y="-15.4" font-family="sans-serif" font-size="14.00" fill="#000000"> &#160;Declarations</text>
<polygon fill="#8dd3c7" stroke="transparent" points="138,-10 138,-30 158,-30 158,-10 138,-10"/>
<text text-anchor="start" x="161.7251" y="-15.4" font-family="sans-serif" font-size="14.00" fill="#000000"> &#160;Module</text>
<polygon fill="#80b1d3" stroke="transparent" points="224,-10 224,-30 244,-30 244,-10 224,-10"/>
<text text-anchor="start" x="247.7812" y="-15.4" font-family="sans-serif" font-size="14.00" fill="#000000"> &#160;Bootstrap</text>
<polygon fill="#fdb462" stroke="transparent" points="321,-10 321,-30 341,-30 341,-10 321,-10"/>
<text text-anchor="start" x="344.6732" y="-15.4" font-family="sans-serif" font-size="14.00" fill="#000000"> &#160;Providers</text>
<polygon fill="#fb8072" stroke="transparent" points="417,-10 417,-30 437,-30 437,-10 417,-10"/>
<text text-anchor="start" x="440.7258" y="-15.4" font-family="sans-serif" font-size="14.00" fill="#000000"> &#160;Exports</text>
<g id="clust1" class="cluster">
<title>cluster_TeamPickerModule</title>
<polygon fill="none" stroke="#000000" stroke-dasharray="1,5" points="8,-70 8,-268 510,-268 510,-70 8,-70"/>
</g>
<g id="clust2" class="cluster">
<title>cluster_TeamPickerModule_declarations</title>
<polygon fill="none" stroke="#000000" points="338,-78 338,-130 502,-130 502,-78 338,-78"/>
</g>
<g id="clust4" class="cluster">
<title>cluster_TeamPickerModule_imports</title>
<polygon fill="none" stroke="#000000" points="172,-78 172,-130 330,-130 330,-78 172,-78"/>
</g>
<g id="clust5" class="cluster">
<title>cluster_TeamPickerModule_exports</title>
<polygon fill="none" stroke="#000000" points="167,-208 167,-260 335,-260 335,-208 167,-208"/>
</g>
<g id="clust7" class="cluster">
<title>cluster_TeamPickerModule_providers</title>
<polygon fill="none" stroke="#000000" points="16,-78 16,-130 164,-130 164,-78 16,-78"/>
</g>
<!-- TeamPickerComponent -->
<g id="node1" class="node">
<title>TeamPickerComponent</title>
<polygon fill="#ffffb3" stroke="#000000" points="494.4678,-122 345.5322,-122 345.5322,-86 494.4678,-86 494.4678,-122"/>
<text text-anchor="middle" x="420" y="-99.8" font-family="Times,serif" font-size="14.00" fill="#000000">TeamPickerComponent</text>
</g>
<!-- TeamPickerModule -->
<g id="node2" class="node">
<title>TeamPickerModule</title>
<polygon fill="#8dd3c7" stroke="#000000" points="314.6853,-187 311.6853,-191 290.6853,-191 287.6853,-187 187.3147,-187 187.3147,-151 314.6853,-151 314.6853,-187"/>
<text text-anchor="middle" x="251" y="-164.8" font-family="Times,serif" font-size="14.00" fill="#000000">TeamPickerModule</text>
</g>
<!-- TeamPickerComponent&#45;&gt;TeamPickerModule -->
<g id="edge1" class="edge">
<title>TeamPickerComponent&#45;&gt;TeamPickerModule</title>
<path fill="none" stroke="#000000" d="M420,-122.1061C420,-141.3391 420,-169 420,-169 420,-169 324.8917,-169 324.8917,-169"/>
<polygon fill="#000000" stroke="#000000" points="324.8917,-165.5001 314.8917,-169 324.8916,-172.5001 324.8917,-165.5001"/>
</g>
<!-- TeamPickerComponent  -->
<g id="node4" class="node">
<title>TeamPickerComponent </title>
<polygon fill="#fb8072" stroke="#000000" points="327.4685,-252 174.5315,-252 174.5315,-216 327.4685,-216 327.4685,-252"/>
<text text-anchor="middle" x="251" y="-229.8" font-family="Times,serif" font-size="14.00" fill="#000000">TeamPickerComponent </text>
</g>
<!-- TeamPickerModule&#45;&gt;TeamPickerComponent  -->
<g id="edge3" class="edge">
<title>TeamPickerModule&#45;&gt;TeamPickerComponent </title>
<path fill="none" stroke="#000000" stroke-dasharray="5,2" d="M251,-187.1061C251,-187.1061 251,-205.991 251,-205.991"/>
<polygon fill="#000000" stroke="#000000" points="247.5001,-205.9909 251,-215.991 254.5001,-205.991 247.5001,-205.9909"/>
</g>
<!-- AutoCompleteModule -->
<g id="node3" class="node">
<title>AutoCompleteModule</title>
<polygon fill="#8dd3c7" stroke="#000000" points="321.9846,-122 318.9846,-126 297.9846,-126 294.9846,-122 180.0154,-122 180.0154,-86 321.9846,-86 321.9846,-122"/>
<text text-anchor="middle" x="251" y="-99.8" font-family="Times,serif" font-size="14.00" fill="#000000">AutoCompleteModule</text>
</g>
<!-- AutoCompleteModule&#45;&gt;TeamPickerModule -->
<g id="edge2" class="edge">
<title>AutoCompleteModule&#45;&gt;TeamPickerModule</title>
<path fill="none" stroke="#000000" d="M251,-122.1061C251,-122.1061 251,-140.991 251,-140.991"/>
<polygon fill="#000000" stroke="#000000" points="247.5001,-140.9909 251,-150.991 254.5001,-140.991 247.5001,-140.9909"/>
</g>
<!-- PeopleService -->
<g id="node5" class="node">
<title>PeopleService</title>
<ellipse fill="#fdb462" stroke="#000000" cx="90" cy="-104" rx="66.0492" ry="18"/>
<text text-anchor="middle" x="90" y="-99.8" font-family="Times,serif" font-size="14.00" fill="#000000">PeopleService</text>
</g>
<!-- PeopleService&#45;&gt;TeamPickerModule -->
<g id="edge4" class="edge">
<title>PeopleService&#45;&gt;TeamPickerModule</title>
<path fill="none" stroke="#000000" d="M90,-122.1061C90,-141.3391 90,-169 90,-169 90,-169 177.3685,-169 177.3685,-169"/>
<polygon fill="#000000" stroke="#000000" points="177.3686,-172.5001 187.3685,-169 177.3685,-165.5001 177.3686,-172.5001"/>
</g>
</g>
</svg>
