<?xml version="1.0" encoding="UTF-8" standalone="no"?>
<!DOCTYPE svg PUBLIC "-//W3C//DTD SVG 1.1//EN"
 "http://www.w3.org/Graphics/SVG/1.1/DTD/svg11.dtd">
<!-- Generated by graphviz version 2.47.3 (20210619.1520)
 -->
<!-- Title: dependencies Pages: 1 -->
<svg width="526pt" height="247pt"
 viewBox="0.00 0.00 526.00 246.80" xmlns="http://www.w3.org/2000/svg" xmlns:xlink="http://www.w3.org/1999/xlink">
<g id="graph0" class="graph" transform="scale(1 1) rotate(0) translate(4 242.8)">
<title>dependencies</title>
<polygon fill="white" stroke="transparent" points="-4,4 -4,-242.8 522,-242.8 522,4 -4,4"/>
<text text-anchor="middle" x="259" y="-8.2" font-family="sans-serif" font-size="14.00">dependencies</text>
<g id="clust1" class="cluster">
<title>cluster_TeamPickerModule</title>
<polygon fill="none" stroke="black" stroke-dasharray="1,5" points="8,-32.8 8,-230.8 510,-230.8 510,-32.8 8,-32.8"/>
</g>
<g id="clust2" class="cluster">
<title>cluster_TeamPickerModule_declarations</title>
<polygon fill="none" stroke="black" points="338,-40.8 338,-92.8 502,-92.8 502,-40.8 338,-40.8"/>
</g>
<g id="clust4" class="cluster">
<title>cluster_TeamPickerModule_imports</title>
<polygon fill="none" stroke="black" points="172,-40.8 172,-92.8 330,-92.8 330,-40.8 172,-40.8"/>
</g>
<g id="clust5" class="cluster">
<title>cluster_TeamPickerModule_exports</title>
<polygon fill="none" stroke="black" points="167,-170.8 167,-222.8 335,-222.8 335,-170.8 167,-170.8"/>
</g>
<g id="clust7" class="cluster">
<title>cluster_TeamPickerModule_providers</title>
<polygon fill="none" stroke="black" points="16,-40.8 16,-92.8 164,-92.8 164,-40.8 16,-40.8"/>
</g>
<!-- TeamPickerComponent -->
<g id="node1" class="node">
<title>TeamPickerComponent</title>
<polygon fill="#ffffb3" stroke="black" points="494.47,-84.8 345.53,-84.8 345.53,-48.8 494.47,-48.8 494.47,-84.8"/>
<text text-anchor="middle" x="420" y="-62.6" font-family="Times,serif" font-size="14.00">TeamPickerComponent</text>
</g>
<!-- TeamPickerModule -->
<g id="node2" class="node">
<title>TeamPickerModule</title>
<polygon fill="#8dd3c7" stroke="black" points="314.69,-149.8 311.69,-153.8 290.69,-153.8 287.69,-149.8 187.31,-149.8 187.31,-113.8 314.69,-113.8 314.69,-149.8"/>
<text text-anchor="middle" x="251" y="-127.6" font-family="Times,serif" font-size="14.00">TeamPickerModule</text>
</g>
<!-- TeamPickerComponent&#45;&gt;TeamPickerModule -->
<g id="edge1" class="edge">
<title>TeamPickerComponent&#45;&gt;TeamPickerModule</title>
<path fill="none" stroke="black" d="M420,-84.91C420,-104.14 420,-131.8 420,-131.8 420,-131.8 324.89,-131.8 324.89,-131.8"/>
<polygon fill="black" stroke="black" points="324.89,-128.3 314.89,-131.8 324.89,-135.3 324.89,-128.3"/>
</g>
<!-- TeamPickerComponent  -->
<g id="node4" class="node">
<title>TeamPickerComponent </title>
<polygon fill="#fb8072" stroke="black" points="327.47,-214.8 174.53,-214.8 174.53,-178.8 327.47,-178.8 327.47,-214.8"/>
<text text-anchor="middle" x="251" y="-192.6" font-family="Times,serif" font-size="14.00">TeamPickerComponent </text>
</g>
<!-- TeamPickerModule&#45;&gt;TeamPickerComponent  -->
<g id="edge3" class="edge">
<title>TeamPickerModule&#45;&gt;TeamPickerComponent </title>
<path fill="none" stroke="black" stroke-dasharray="5,2" d="M251,-149.91C251,-149.91 251,-168.79 251,-168.79"/>
<polygon fill="black" stroke="black" points="247.5,-168.79 251,-178.79 254.5,-168.79 247.5,-168.79"/>
</g>
<!-- AutoCompleteModule -->
<g id="node3" class="node">
<title>AutoCompleteModule</title>
<polygon fill="#8dd3c7" stroke="black" points="321.98,-84.8 318.98,-88.8 297.98,-88.8 294.98,-84.8 180.02,-84.8 180.02,-48.8 321.98,-48.8 321.98,-84.8"/>
<text text-anchor="middle" x="251" y="-62.6" font-family="Times,serif" font-size="14.00">AutoCompleteModule</text>
</g>
<!-- AutoCompleteModule&#45;&gt;TeamPickerModule -->
<g id="edge2" class="edge">
<title>AutoCompleteModule&#45;&gt;TeamPickerModule</title>
<path fill="none" stroke="black" d="M251,-84.91C251,-84.91 251,-103.79 251,-103.79"/>
<polygon fill="black" stroke="black" points="247.5,-103.79 251,-113.79 254.5,-103.79 247.5,-103.79"/>
</g>
<!-- PeopleService -->
<g id="node5" class="node">
<title>PeopleService</title>
<ellipse fill="#fdb462" stroke="black" cx="90" cy="-66.8" rx="66.05" ry="18"/>
<text text-anchor="middle" x="90" y="-62.6" font-family="Times,serif" font-size="14.00">PeopleService</text>
</g>
<!-- PeopleService&#45;&gt;TeamPickerModule -->
<g id="edge4" class="edge">
<title>PeopleService&#45;&gt;TeamPickerModule</title>
<path fill="none" stroke="black" d="M90,-84.91C90,-104.14 90,-131.8 90,-131.8 90,-131.8 177.37,-131.8 177.37,-131.8"/>
<polygon fill="black" stroke="black" points="177.37,-135.3 187.37,-131.8 177.37,-128.3 177.37,-135.3"/>
</g>
</g>
</svg>
