<?xml version="1.0" encoding="UTF-8" standalone="no"?>
<!DOCTYPE svg PUBLIC "-//W3C//DTD SVG 1.1//EN"
 "http://www.w3.org/Graphics/SVG/1.1/DTD/svg11.dtd">
<!-- Generated by graphviz version 2.40.1 (20161225.0304)
 -->
<!-- Title: dependencies Pages: 1 -->
<svg width="540pt" height="284pt"
 viewBox="0.00 0.00 540.00 284.00" xmlns="http://www.w3.org/2000/svg" xmlns:xlink="http://www.w3.org/1999/xlink">
<g id="graph0" class="graph" transform="scale(1 1) rotate(0) translate(4 280)">
<title>dependencies</title>
<polygon fill="#ffffff" stroke="transparent" points="-4,4 -4,-280 536,-280 536,4 -4,4"/>
<text text-anchor="start" x="245.0091" y="-42.4" font-family="sans-serif" font-weight="bold" font-size="14.00" fill="#000000">Legend</text>
<polygon fill="#ffffb3" stroke="transparent" points="32,-10 32,-30 52,-30 52,-10 32,-10"/>
<text text-anchor="start" x="55.629" y="-15.4" font-family="sans-serif" font-size="14.00" fill="#000000"> &#160;Declarations</text>
<polygon fill="#8dd3c7" stroke="transparent" points="145,-10 145,-30 165,-30 165,-10 145,-10"/>
<text text-anchor="start" x="168.7251" y="-15.4" font-family="sans-serif" font-size="14.00" fill="#000000"> &#160;Module</text>
<polygon fill="#80b1d3" stroke="transparent" points="231,-10 231,-30 251,-30 251,-10 231,-10"/>
<text text-anchor="start" x="254.7812" y="-15.4" font-family="sans-serif" font-size="14.00" fill="#000000"> &#160;Bootstrap</text>
<polygon fill="#fdb462" stroke="transparent" points="328,-10 328,-30 348,-30 348,-10 328,-10"/>
<text text-anchor="start" x="351.6732" y="-15.4" font-family="sans-serif" font-size="14.00" fill="#000000"> &#160;Providers</text>
<polygon fill="#fb8072" stroke="transparent" points="424,-10 424,-30 444,-30 444,-10 424,-10"/>
<text text-anchor="start" x="447.7258" y="-15.4" font-family="sans-serif" font-size="14.00" fill="#000000"> &#160;Exports</text>
<g id="clust1" class="cluster">
<title>cluster_TeamPickerModule</title>
<polygon fill="none" stroke="#000000" stroke-dasharray="1,5" points="8,-70 8,-268 524,-268 524,-70 8,-70"/>
</g>
<g id="clust2" class="cluster">
<title>cluster_TeamPickerModule_declarations</title>
<polygon fill="none" stroke="#000000" points="352,-78 352,-130 516,-130 516,-78 352,-78"/>
</g>
<g id="clust4" class="cluster">
<title>cluster_TeamPickerModule_imports</title>
<polygon fill="none" stroke="#000000" points="186,-78 186,-130 344,-130 344,-78 186,-78"/>
</g>
<g id="clust5" class="cluster">
<title>cluster_TeamPickerModule_exports</title>
<polygon fill="none" stroke="#000000" points="181,-208 181,-260 349,-260 349,-208 181,-208"/>
</g>
<g id="clust7" class="cluster">
<title>cluster_TeamPickerModule_providers</title>
<polygon fill="none" stroke="#000000" points="16,-78 16,-130 178,-130 178,-78 16,-78"/>
</g>
<!-- TeamPickerComponent -->
<g id="node1" class="node">
<title>TeamPickerComponent</title>
<polygon fill="#ffffb3" stroke="#000000" points="508.4678,-122 359.5322,-122 359.5322,-86 508.4678,-86 508.4678,-122"/>
<text text-anchor="middle" x="434" y="-99.8" font-family="Times,serif" font-size="14.00" fill="#000000">TeamPickerComponent</text>
</g>
<!-- TeamPickerModule -->
<g id="node2" class="node">
<title>TeamPickerModule</title>
<polygon fill="#8dd3c7" stroke="#000000" points="328.6853,-187 325.6853,-191 304.6853,-191 301.6853,-187 201.3147,-187 201.3147,-151 328.6853,-151 328.6853,-187"/>
<text text-anchor="middle" x="265" y="-164.8" font-family="Times,serif" font-size="14.00" fill="#000000">TeamPickerModule</text>
</g>
<!-- TeamPickerComponent&#45;&gt;TeamPickerModule -->
<g id="edge1" class="edge">
<title>TeamPickerComponent&#45;&gt;TeamPickerModule</title>
<path fill="none" stroke="#000000" d="M434,-122.1061C434,-141.3391 434,-169 434,-169 434,-169 338.8917,-169 338.8917,-169"/>
<polygon fill="#000000" stroke="#000000" points="338.8917,-165.5001 328.8917,-169 338.8916,-172.5001 338.8917,-165.5001"/>
</g>
<!-- TeamPickerComponent  -->
<g id="node4" class="node">
<title>TeamPickerComponent </title>
<polygon fill="#fb8072" stroke="#000000" points="341.4685,-252 188.5315,-252 188.5315,-216 341.4685,-216 341.4685,-252"/>
<text text-anchor="middle" x="265" y="-229.8" font-family="Times,serif" font-size="14.00" fill="#000000">TeamPickerComponent </text>
</g>
<!-- TeamPickerModule&#45;&gt;TeamPickerComponent  -->
<g id="edge3" class="edge">
<title>TeamPickerModule&#45;&gt;TeamPickerComponent </title>
<path fill="none" stroke="#000000" stroke-dasharray="5,2" d="M265,-187.1061C265,-187.1061 265,-205.991 265,-205.991"/>
<polygon fill="#000000" stroke="#000000" points="261.5001,-205.9909 265,-215.991 268.5001,-205.991 261.5001,-205.9909"/>
</g>
<!-- AutoCompleteModule -->
<g id="node3" class="node">
<title>AutoCompleteModule</title>
<polygon fill="#8dd3c7" stroke="#000000" points="335.9846,-122 332.9846,-126 311.9846,-126 308.9846,-122 194.0154,-122 194.0154,-86 335.9846,-86 335.9846,-122"/>
<text text-anchor="middle" x="265" y="-99.8" font-family="Times,serif" font-size="14.00" fill="#000000">AutoCompleteModule</text>
</g>
<!-- AutoCompleteModule&#45;&gt;TeamPickerModule -->
<g id="edge2" class="edge">
<title>AutoCompleteModule&#45;&gt;TeamPickerModule</title>
<path fill="none" stroke="#000000" d="M265,-122.1061C265,-122.1061 265,-140.991 265,-140.991"/>
<polygon fill="#000000" stroke="#000000" points="261.5001,-140.9909 265,-150.991 268.5001,-140.991 261.5001,-140.9909"/>
</g>
<!-- SimpleFunction -->
<g id="node5" class="node">
<title>SimpleFunction</title>
<ellipse fill="#fdb462" stroke="#000000" cx="97" cy="-104" rx="72.9722" ry="18"/>
<text text-anchor="middle" x="97" y="-99.8" font-family="Times,serif" font-size="14.00" fill="#000000">SimpleFunction</text>
</g>
<!-- SimpleFunction&#45;&gt;TeamPickerModule -->
<g id="edge4" class="edge">
<title>SimpleFunction&#45;&gt;TeamPickerModule</title>
<path fill="none" stroke="#000000" d="M97,-122.1061C97,-141.3391 97,-169 97,-169 97,-169 191.0072,-169 191.0072,-169"/>
<polygon fill="#000000" stroke="#000000" points="191.0072,-172.5001 201.0072,-169 191.0071,-165.5001 191.0072,-172.5001"/>
</g>
</g>
</svg>
