<?xml version="1.0" encoding="UTF-8" standalone="no"?>
<!DOCTYPE svg PUBLIC "-//W3C//DTD SVG 1.1//EN"
 "http://www.w3.org/Graphics/SVG/1.1/DTD/svg11.dtd">
<!-- Generated by graphviz version 2.47.3 (20210619.1520)
 -->
<!-- Title: dependencies Pages: 1 -->
<svg width="552pt" height="247pt"
 viewBox="0.00 0.00 552.00 246.80" xmlns="http://www.w3.org/2000/svg" xmlns:xlink="http://www.w3.org/1999/xlink">
<g id="graph0" class="graph" transform="scale(1 1) rotate(0) translate(4 242.8)">
<title>dependencies</title>
<polygon fill="white" stroke="transparent" points="-4,4 -4,-242.8 548,-242.8 548,4 -4,4"/>
<text text-anchor="middle" x="272" y="-8.2" font-family="sans-serif" font-size="14.00">dependencies</text>
<g id="clust1" class="cluster">
<title>cluster_SimpleServiceModule</title>
<polygon fill="none" stroke="black" stroke-dasharray="1,5" points="8,-32.8 8,-230.8 536,-230.8 536,-32.8 8,-32.8"/>
</g>
<g id="clust2" class="cluster">
<title>cluster_SimpleServiceModule_declarations</title>
<polygon fill="none" stroke="black" points="350,-40.8 350,-92.8 528,-92.8 528,-40.8 350,-40.8"/>
</g>
<g id="clust4" class="cluster">
<title>cluster_SimpleServiceModule_imports</title>
<polygon fill="none" stroke="black" points="184,-40.8 184,-92.8 342,-92.8 342,-40.8 184,-40.8"/>
</g>
<g id="clust5" class="cluster">
<title>cluster_SimpleServiceModule_exports</title>
<polygon fill="none" stroke="black" points="172,-170.8 172,-222.8 354,-222.8 354,-170.8 172,-170.8"/>
</g>
<g id="clust7" class="cluster">
<title>cluster_SimpleServiceModule_providers</title>
<polygon fill="none" stroke="black" points="16,-40.8 16,-92.8 176,-92.8 176,-40.8 16,-40.8"/>
</g>
<!-- SimpleServiceComponent -->
<g id="node1" class="node">
<title>SimpleServiceComponent</title>
<polygon fill="#ffffb3" stroke="black" points="520.48,-84.8 357.52,-84.8 357.52,-48.8 520.48,-48.8 520.48,-84.8"/>
<text text-anchor="middle" x="439" y="-62.6" font-family="Times,serif" font-size="14.00">SimpleServiceComponent</text>
</g>
<!-- SimpleServiceModule -->
<g id="node2" class="node">
<title>SimpleServiceModule</title>
<polygon fill="#8dd3c7" stroke="black" points="333.7,-149.8 330.7,-153.8 309.7,-153.8 306.7,-149.8 192.3,-149.8 192.3,-113.8 333.7,-113.8 333.7,-149.8"/>
<text text-anchor="middle" x="263" y="-127.6" font-family="Times,serif" font-size="14.00">SimpleServiceModule</text>
</g>
<!-- SimpleServiceComponent&#45;&gt;SimpleServiceModule -->
<g id="edge1" class="edge">
<title>SimpleServiceComponent&#45;&gt;SimpleServiceModule</title>
<path fill="none" stroke="black" d="M439,-84.91C439,-104.14 439,-131.8 439,-131.8 439,-131.8 343.83,-131.8 343.83,-131.8"/>
<polygon fill="black" stroke="black" points="343.83,-128.3 333.83,-131.8 343.83,-135.3 343.83,-128.3"/>
</g>
<!-- SimpleServiceComponent  -->
<g id="node4" class="node">
<title>SimpleServiceComponent </title>
<polygon fill="#fb8072" stroke="black" points="346.48,-214.8 179.52,-214.8 179.52,-178.8 346.48,-178.8 346.48,-214.8"/>
<text text-anchor="middle" x="263" y="-192.6" font-family="Times,serif" font-size="14.00">SimpleServiceComponent </text>
</g>
<!-- SimpleServiceModule&#45;&gt;SimpleServiceComponent  -->
<g id="edge3" class="edge">
<title>SimpleServiceModule&#45;&gt;SimpleServiceComponent </title>
<path fill="none" stroke="black" stroke-dasharray="5,2" d="M263,-149.91C263,-149.91 263,-168.79 263,-168.79"/>
<polygon fill="black" stroke="black" points="259.5,-168.79 263,-178.79 266.5,-168.79 259.5,-168.79"/>
</g>
<!-- AutoCompleteModule -->
<g id="node3" class="node">
<title>AutoCompleteModule</title>
<polygon fill="#8dd3c7" stroke="black" points="333.98,-84.8 330.98,-88.8 309.98,-88.8 306.98,-84.8 192.02,-84.8 192.02,-48.8 333.98,-48.8 333.98,-84.8"/>
<text text-anchor="middle" x="263" y="-62.6" font-family="Times,serif" font-size="14.00">AutoCompleteModule</text>
</g>
<!-- AutoCompleteModule&#45;&gt;SimpleServiceModule -->
<g id="edge2" class="edge">
<title>AutoCompleteModule&#45;&gt;SimpleServiceModule</title>
<path fill="none" stroke="black" d="M263,-84.91C263,-84.91 263,-103.79 263,-103.79"/>
<polygon fill="black" stroke="black" points="259.5,-103.79 263,-113.79 266.5,-103.79 259.5,-103.79"/>
</g>
<!-- CountryService -->
<g id="node5" class="node">
<title>CountryService</title>
<ellipse fill="#fdb462" stroke="black" cx="96" cy="-66.8" rx="71.79" ry="18"/>
<text text-anchor="middle" x="96" y="-62.6" font-family="Times,serif" font-size="14.00">CountryService</text>
</g>
<!-- CountryService&#45;&gt;SimpleServiceModule -->
<g id="edge4" class="edge">
<title>CountryService&#45;&gt;SimpleServiceModule</title>
<path fill="none" stroke="black" d="M96,-84.91C96,-104.14 96,-131.8 96,-131.8 96,-131.8 182.18,-131.8 182.18,-131.8"/>
<polygon fill="black" stroke="black" points="182.18,-135.3 192.18,-131.8 182.18,-128.3 182.18,-135.3"/>
</g>
</g>
</svg>
