<?xml version="1.0" encoding="UTF-8" standalone="no"?>
<!DOCTYPE svg PUBLIC "-//W3C//DTD SVG 1.1//EN"
 "http://www.w3.org/Graphics/SVG/1.1/DTD/svg11.dtd">
<!-- Generated by graphviz version 2.40.1 (20161225.0304)
 -->
<!-- Title: dependencies Pages: 1 -->
<svg width="552pt" height="284pt"
 viewBox="0.00 0.00 552.00 284.00" xmlns="http://www.w3.org/2000/svg" xmlns:xlink="http://www.w3.org/1999/xlink">
<g id="graph0" class="graph" transform="scale(1 1) rotate(0) translate(4 280)">
<title>dependencies</title>
<polygon fill="#ffffff" stroke="transparent" points="-4,4 -4,-280 548,-280 548,4 -4,4"/>
<text text-anchor="start" x="251.0091" y="-42.4" font-family="sans-serif" font-weight="bold" font-size="14.00" fill="#000000">Legend</text>
<polygon fill="#ffffb3" stroke="transparent" points="38,-10 38,-30 58,-30 58,-10 38,-10"/>
<text text-anchor="start" x="61.629" y="-15.4" font-family="sans-serif" font-size="14.00" fill="#000000"> &#160;Declarations</text>
<polygon fill="#8dd3c7" stroke="transparent" points="151,-10 151,-30 171,-30 171,-10 151,-10"/>
<text text-anchor="start" x="174.7251" y="-15.4" font-family="sans-serif" font-size="14.00" fill="#000000"> &#160;Module</text>
<polygon fill="#80b1d3" stroke="transparent" points="237,-10 237,-30 257,-30 257,-10 237,-10"/>
<text text-anchor="start" x="260.7812" y="-15.4" font-family="sans-serif" font-size="14.00" fill="#000000"> &#160;Bootstrap</text>
<polygon fill="#fdb462" stroke="transparent" points="334,-10 334,-30 354,-30 354,-10 334,-10"/>
<text text-anchor="start" x="357.6732" y="-15.4" font-family="sans-serif" font-size="14.00" fill="#000000"> &#160;Providers</text>
<polygon fill="#fb8072" stroke="transparent" points="430,-10 430,-30 450,-30 450,-10 430,-10"/>
<text text-anchor="start" x="453.7258" y="-15.4" font-family="sans-serif" font-size="14.00" fill="#000000"> &#160;Exports</text>
<g id="clust1" class="cluster">
<title>cluster_SimpleServiceModule</title>
<polygon fill="none" stroke="#000000" stroke-dasharray="1,5" points="8,-70 8,-268 536,-268 536,-70 8,-70"/>
</g>
<g id="clust2" class="cluster">
<title>cluster_SimpleServiceModule_declarations</title>
<polygon fill="none" stroke="#000000" points="350,-78 350,-130 528,-130 528,-78 350,-78"/>
</g>
<g id="clust4" class="cluster">
<title>cluster_SimpleServiceModule_imports</title>
<polygon fill="none" stroke="#000000" points="184,-78 184,-130 342,-130 342,-78 184,-78"/>
</g>
<g id="clust5" class="cluster">
<title>cluster_SimpleServiceModule_exports</title>
<polygon fill="none" stroke="#000000" points="172,-208 172,-260 354,-260 354,-208 172,-208"/>
</g>
<g id="clust7" class="cluster">
<title>cluster_SimpleServiceModule_providers</title>
<polygon fill="none" stroke="#000000" points="16,-78 16,-130 176,-130 176,-78 16,-78"/>
</g>
<!-- SimpleServiceComponent -->
<g id="node1" class="node">
<title>SimpleServiceComponent</title>
<polygon fill="#ffffb3" stroke="#000000" points="520.479,-122 357.521,-122 357.521,-86 520.479,-86 520.479,-122"/>
<text text-anchor="middle" x="439" y="-99.8" font-family="Times,serif" font-size="14.00" fill="#000000">SimpleServiceComponent</text>
</g>
<!-- SimpleServiceModule -->
<g id="node2" class="node">
<title>SimpleServiceModule</title>
<polygon fill="#8dd3c7" stroke="#000000" points="333.6965,-187 330.6965,-191 309.6965,-191 306.6965,-187 192.3035,-187 192.3035,-151 333.6965,-151 333.6965,-187"/>
<text text-anchor="middle" x="263" y="-164.8" font-family="Times,serif" font-size="14.00" fill="#000000">SimpleServiceModule</text>
</g>
<!-- SimpleServiceComponent&#45;&gt;SimpleServiceModule -->
<g id="edge1" class="edge">
<title>SimpleServiceComponent&#45;&gt;SimpleServiceModule</title>
<path fill="none" stroke="#000000" d="M439,-122.1061C439,-141.3391 439,-169 439,-169 439,-169 343.8252,-169 343.8252,-169"/>
<polygon fill="#000000" stroke="#000000" points="343.8252,-165.5001 333.8252,-169 343.8251,-172.5001 343.8252,-165.5001"/>
</g>
<!-- SimpleServiceComponent  -->
<g id="node4" class="node">
<title>SimpleServiceComponent </title>
<polygon fill="#fb8072" stroke="#000000" points="346.4797,-252 179.5203,-252 179.5203,-216 346.4797,-216 346.4797,-252"/>
<text text-anchor="middle" x="263" y="-229.8" font-family="Times,serif" font-size="14.00" fill="#000000">SimpleServiceComponent </text>
</g>
<!-- SimpleServiceModule&#45;&gt;SimpleServiceComponent  -->
<g id="edge3" class="edge">
<title>SimpleServiceModule&#45;&gt;SimpleServiceComponent </title>
<path fill="none" stroke="#000000" stroke-dasharray="5,2" d="M263,-187.1061C263,-187.1061 263,-205.991 263,-205.991"/>
<polygon fill="#000000" stroke="#000000" points="259.5001,-205.9909 263,-215.991 266.5001,-205.991 259.5001,-205.9909"/>
</g>
<!-- AutoCompleteModule -->
<g id="node3" class="node">
<title>AutoCompleteModule</title>
<polygon fill="#8dd3c7" stroke="#000000" points="333.9846,-122 330.9846,-126 309.9846,-126 306.9846,-122 192.0154,-122 192.0154,-86 333.9846,-86 333.9846,-122"/>
<text text-anchor="middle" x="263" y="-99.8" font-family="Times,serif" font-size="14.00" fill="#000000">AutoCompleteModule</text>
</g>
<!-- AutoCompleteModule&#45;&gt;SimpleServiceModule -->
<g id="edge2" class="edge">
<title>AutoCompleteModule&#45;&gt;SimpleServiceModule</title>
<path fill="none" stroke="#000000" d="M263,-122.1061C263,-122.1061 263,-140.991 263,-140.991"/>
<polygon fill="#000000" stroke="#000000" points="259.5001,-140.9909 263,-150.991 266.5001,-140.991 259.5001,-140.9909"/>
</g>
<!-- CountryService -->
<g id="node5" class="node">
<title>CountryService</title>
<ellipse fill="#fdb462" stroke="#000000" cx="96" cy="-104" rx="71.7892" ry="18"/>
<text text-anchor="middle" x="96" y="-99.8" font-family="Times,serif" font-size="14.00" fill="#000000">CountryService</text>
</g>
<!-- CountryService&#45;&gt;SimpleServiceModule -->
<g id="edge4" class="edge">
<title>CountryService&#45;&gt;SimpleServiceModule</title>
<path fill="none" stroke="#000000" d="M96,-122.1061C96,-141.3391 96,-169 96,-169 96,-169 182.177,-169 182.177,-169"/>
<polygon fill="#000000" stroke="#000000" points="182.177,-172.5001 192.177,-169 182.1769,-165.5001 182.177,-172.5001"/>
</g>
</g>
</svg>
