<?xml version="1.0" encoding="UTF-8" standalone="no"?>
<!DOCTYPE svg PUBLIC "-//W3C//DTD SVG 1.1//EN"
 "http://www.w3.org/Graphics/SVG/1.1/DTD/svg11.dtd">
<!-- Generated by graphviz version 2.47.3 (20210619.1520)
 -->
<!-- Title: dependencies Pages: 1 -->
<svg width="322pt" height="247pt"
 viewBox="0.00 0.00 322.00 246.80" xmlns="http://www.w3.org/2000/svg" xmlns:xlink="http://www.w3.org/1999/xlink">
<g id="graph0" class="graph" transform="scale(1 1) rotate(0) translate(4 242.8)">
<title>dependencies</title>
<polygon fill="white" stroke="transparent" points="-4,4 -4,-242.8 318,-242.8 318,4 -4,4"/>
<text text-anchor="middle" x="157" y="-8.2" font-family="sans-serif" font-size="14.00">dependencies</text>
<g id="clust1" class="cluster">
<title>cluster_AutoCompleteModule</title>
<polygon fill="none" stroke="black" stroke-dasharray="1,5" points="8,-32.8 8,-230.8 306,-230.8 306,-32.8 8,-32.8"/>
</g>
<g id="clust6" class="cluster">
<title>cluster_AutoCompleteModule_exports</title>
<polygon fill="none" stroke="black" points="16,-170.8 16,-222.8 298,-222.8 298,-170.8 16,-170.8"/>
</g>
<g id="clust2" class="cluster">
<title>cluster_AutoCompleteModule_declarations</title>
<polygon fill="none" stroke="black" points="19,-40.8 19,-92.8 295,-92.8 295,-40.8 19,-40.8"/>
</g>
<!-- AutoCompleteComponent -->
<g id="node1" class="node">
<title>AutoCompleteComponent</title>
<polygon fill="#ffffb3" stroke="black" points="286.77,-84.8 123.23,-84.8 123.23,-48.8 286.77,-48.8 286.77,-84.8"/>
<text text-anchor="middle" x="205" y="-62.6" font-family="Times,serif" font-size="14.00">AutoCompleteComponent</text>
</g>
<!-- AutoCompleteModule -->
<g id="node3" class="node">
<title>AutoCompleteModule</title>
<polygon fill="#8dd3c7" stroke="black" points="214.98,-149.8 211.98,-153.8 190.98,-153.8 187.98,-149.8 73.02,-149.8 73.02,-113.8 214.98,-113.8 214.98,-149.8"/>
<text text-anchor="middle" x="144" y="-127.6" font-family="Times,serif" font-size="14.00">AutoCompleteModule</text>
</g>
<!-- AutoCompleteComponent&#45;&gt;AutoCompleteModule -->
<g id="edge1" class="edge">
<title>AutoCompleteComponent&#45;&gt;AutoCompleteModule</title>
<path fill="none" stroke="black" d="M169.05,-84.91C169.05,-84.91 169.05,-103.79 169.05,-103.79"/>
<polygon fill="black" stroke="black" points="165.55,-103.79 169.05,-113.79 172.55,-103.79 165.55,-103.79"/>
</g>
<!-- BoldPrefix -->
<g id="node2" class="node">
<title>BoldPrefix</title>
<polygon fill="#ffffb3" stroke="black" points="104.94,-84.8 27.06,-84.8 27.06,-48.8 104.94,-48.8 104.94,-84.8"/>
<text text-anchor="middle" x="66" y="-62.6" font-family="Times,serif" font-size="14.00">BoldPrefix</text>
</g>
<!-- BoldPrefix&#45;&gt;AutoCompleteModule -->
<g id="edge2" class="edge">
<title>BoldPrefix&#45;&gt;AutoCompleteModule</title>
<path fill="none" stroke="black" d="M88.86,-84.91C88.86,-84.91 88.86,-103.79 88.86,-103.79"/>
<polygon fill="black" stroke="black" points="85.36,-103.79 88.86,-113.79 92.36,-103.79 85.36,-103.79"/>
</g>
<!-- AutoCompleteComponent  -->
<g id="node4" class="node">
<title>AutoCompleteComponent </title>
<polygon fill="#fb8072" stroke="black" points="289.77,-214.8 122.23,-214.8 122.23,-178.8 289.77,-178.8 289.77,-214.8"/>
<text text-anchor="middle" x="206" y="-192.6" font-family="Times,serif" font-size="14.00">AutoCompleteComponent </text>
</g>
<!-- AutoCompleteModule&#45;&gt;AutoCompleteComponent  -->
<g id="edge3" class="edge">
<title>AutoCompleteModule&#45;&gt;AutoCompleteComponent </title>
<path fill="none" stroke="black" stroke-dasharray="5,2" d="M168.68,-149.91C168.68,-149.91 168.68,-168.79 168.68,-168.79"/>
<polygon fill="black" stroke="black" points="165.18,-168.79 168.68,-178.79 172.18,-168.79 165.18,-168.79"/>
</g>
<!-- BoldPrefix  -->
<g id="node5" class="node">
<title>BoldPrefix </title>
<polygon fill="#fb8072" stroke="black" points="104.44,-214.8 23.56,-214.8 23.56,-178.8 104.44,-178.8 104.44,-214.8"/>
<text text-anchor="middle" x="64" y="-192.6" font-family="Times,serif" font-size="14.00">BoldPrefix </text>
</g>
<!-- AutoCompleteModule&#45;&gt;BoldPrefix  -->
<g id="edge4" class="edge">
<title>AutoCompleteModule&#45;&gt;BoldPrefix </title>
<path fill="none" stroke="black" stroke-dasharray="5,2" d="M88.74,-149.91C88.74,-149.91 88.74,-168.79 88.74,-168.79"/>
<polygon fill="black" stroke="black" points="85.24,-168.79 88.74,-178.79 92.24,-168.79 85.24,-168.79"/>
</g>
</g>
</svg>
