<?xml version="1.0" encoding="UTF-8" standalone="no"?>
<!DOCTYPE svg PUBLIC "-//W3C//DTD SVG 1.1//EN"
 "http://www.w3.org/Graphics/SVG/1.1/DTD/svg11.dtd">
<!-- Generated by graphviz version 2.47.3 (20210619.1520)
 -->
<!-- Title: dependencies Pages: 1 -->
<svg width="2138pt" height="337pt"
 viewBox="0.00 0.00 2138.00 336.80" xmlns="http://www.w3.org/2000/svg" xmlns:xlink="http://www.w3.org/1999/xlink">
<g id="graph0" class="graph" transform="scale(1 1) rotate(0) translate(4 332.8)">
<title>dependencies</title>
<polygon fill="white" stroke="transparent" points="-4,4 -4,-332.8 2134,-332.8 2134,4 -4,4"/>
<text text-anchor="middle" x="1065" y="-8.2" font-family="sans-serif" font-size="14.00">dependencies</text>
<g id="clust1" class="cluster">
<title>cluster_AppModule</title>
<polygon fill="none" stroke="black" stroke-dasharray="1,5" points="8,-32.8 8,-244.8 298,-244.8 298,-32.8 8,-32.8"/>
</g>
<g id="clust2" class="cluster">
<title>cluster_AppModule_declarations</title>
<polygon fill="none" stroke="black" points="168,-40.8 168,-92.8 290,-92.8 290,-40.8 168,-40.8"/>
</g>
<g id="clust4" class="cluster">
<title>cluster_AppModule_imports</title>
<polygon fill="none" stroke="black" points="16,-40.8 16,-92.8 160,-92.8 160,-40.8 16,-40.8"/>
</g>
<g id="clust6" class="cluster">
<title>cluster_AppModule_bootstrap</title>
<polygon fill="none" stroke="black" points="96,-184.8 96,-236.8 220,-236.8 220,-184.8 96,-184.8"/>
</g>
<g id="clust14" class="cluster">
<title>cluster_AutoCompleteModule</title>
<polygon fill="none" stroke="black" stroke-dasharray="1,5" points="306,-32.8 306,-244.8 604,-244.8 604,-32.8 306,-32.8"/>
</g>
<g id="clust15" class="cluster">
<title>cluster_AutoCompleteModule_declarations</title>
<polygon fill="none" stroke="black" points="320,-40.8 320,-92.8 596,-92.8 596,-40.8 320,-40.8"/>
</g>
<g id="clust19" class="cluster">
<title>cluster_AutoCompleteModule_exports</title>
<polygon fill="none" stroke="black" points="314,-184.8 314,-236.8 596,-236.8 596,-184.8 314,-184.8"/>
</g>
<g id="clust22" class="cluster">
<title>cluster_CountryPickerModule</title>
<polygon fill="none" stroke="black" stroke-dasharray="1,5" points="612,-100.8 612,-320.8 962,-320.8 962,-100.8 612,-100.8"/>
</g>
<g id="clust23" class="cluster">
<title>cluster_CountryPickerModule_declarations</title>
<polygon fill="none" stroke="black" points="620,-108.8 620,-160.8 798,-160.8 798,-108.8 620,-108.8"/>
</g>
<g id="clust26" class="cluster">
<title>cluster_CountryPickerModule_exports</title>
<polygon fill="none" stroke="black" points="696,-260.8 696,-312.8 878,-312.8 878,-260.8 696,-260.8"/>
</g>
<g id="clust28" class="cluster">
<title>cluster_CountryPickerModule_providers</title>
<polygon fill="none" stroke="black" points="806,-108.8 806,-160.8 954,-160.8 954,-108.8 806,-108.8"/>
</g>
<g id="clust29" class="cluster">
<title>cluster_HomePageModule</title>
<polygon fill="none" stroke="black" stroke-dasharray="1,5" points="970,-176.8 970,-312.8 1562,-312.8 1562,-176.8 970,-176.8"/>
</g>
<g id="clust30" class="cluster">
<title>cluster_HomePageModule_declarations</title>
<polygon fill="none" stroke="black" points="978,-184.8 978,-236.8 1072,-236.8 1072,-184.8 978,-184.8"/>
</g>
<g id="clust32" class="cluster">
<title>cluster_HomePageModule_imports</title>
<polygon fill="none" stroke="black" points="1080,-184.8 1080,-236.8 1554,-236.8 1554,-184.8 1080,-184.8"/>
</g>
<g id="clust36" class="cluster">
<title>cluster_IngredientPickerModule</title>
<polygon fill="none" stroke="black" stroke-dasharray="1,5" points="970,-100.8 970,-168.8 1562,-168.8 1562,-100.8 970,-100.8"/>
</g>
<g id="clust37" class="cluster">
<title>cluster_IngredientPickerModule_declarations</title>
<polygon fill="none" stroke="black" points="1364,-108.8 1364,-160.8 1554,-160.8 1554,-108.8 1364,-108.8"/>
</g>
<g id="clust40" class="cluster">
<title>cluster_IngredientPickerModule_exports</title>
<polygon fill="none" stroke="black" points="1162,-108.8 1162,-160.8 1356,-160.8 1356,-108.8 1162,-108.8"/>
</g>
<g id="clust42" class="cluster">
<title>cluster_IngredientPickerModule_providers</title>
<polygon fill="none" stroke="black" points="978,-108.8 978,-160.8 1154,-160.8 1154,-108.8 978,-108.8"/>
</g>
<g id="clust43" class="cluster">
<title>cluster_SimpleServiceModule</title>
<polygon fill="none" stroke="black" stroke-dasharray="1,5" points="1570,-100.8 1570,-168.8 2122,-168.8 2122,-100.8 1570,-100.8"/>
</g>
<g id="clust44" class="cluster">
<title>cluster_SimpleServiceModule_declarations</title>
<polygon fill="none" stroke="black" points="1936,-108.8 1936,-160.8 2114,-160.8 2114,-108.8 1936,-108.8"/>
</g>
<g id="clust47" class="cluster">
<title>cluster_SimpleServiceModule_exports</title>
<polygon fill="none" stroke="black" points="1746,-108.8 1746,-160.8 1928,-160.8 1928,-108.8 1746,-108.8"/>
</g>
<g id="clust49" class="cluster">
<title>cluster_SimpleServiceModule_providers</title>
<polygon fill="none" stroke="black" points="1578,-108.8 1578,-160.8 1738,-160.8 1738,-108.8 1578,-108.8"/>
</g>
<g id="clust50" class="cluster">
<title>cluster_TeamPickerModule</title>
<polygon fill="none" stroke="black" stroke-dasharray="1,5" points="1570,-252.8 1570,-320.8 1926,-320.8 1926,-252.8 1570,-252.8"/>
</g>
<g id="clust51" class="cluster">
<title>cluster_TeamPickerModule_declarations</title>
<polygon fill="none" stroke="black" points="1754,-260.8 1754,-312.8 1918,-312.8 1918,-260.8 1754,-260.8"/>
</g>
<g id="clust54" class="cluster">
<title>cluster_TeamPickerModule_exports</title>
<polygon fill="none" stroke="black" points="1578,-260.8 1578,-312.8 1746,-312.8 1746,-260.8 1578,-260.8"/>
</g>
<!-- AppComponent -->
<g id="node1" class="node">
<title>AppComponent</title>
<polygon fill="#ffffb3" stroke="black" points="281.94,-84.8 176.06,-84.8 176.06,-48.8 281.94,-48.8 281.94,-84.8"/>
<text text-anchor="middle" x="229" y="-62.6" font-family="Times,serif" font-size="14.00">AppComponent</text>
</g>
<!-- AppModule -->
<g id="node2" class="node">
<title>AppModule</title>
<polygon fill="#8dd3c7" stroke="black" points="199.66,-152.8 196.66,-156.8 175.66,-156.8 172.66,-152.8 116.34,-152.8 116.34,-116.8 199.66,-116.8 199.66,-152.8"/>
<text text-anchor="middle" x="158" y="-130.6" font-family="Times,serif" font-size="14.00">AppModule</text>
</g>
<!-- AppComponent&#45;&gt;AppModule -->
<g id="edge1" class="edge">
<title>AppComponent&#45;&gt;AppModule</title>
<path fill="none" stroke="black" d="M188.05,-85.02C188.05,-85.02 188.05,-106.53 188.05,-106.53"/>
<polygon fill="black" stroke="black" points="184.55,-106.53 188.05,-116.53 191.55,-106.53 184.55,-106.53"/>
</g>
<!-- AppComponent  -->
<g id="node4" class="node">
<title>AppComponent </title>
<polygon fill="#80b1d3" stroke="black" points="212.44,-228.8 103.56,-228.8 103.56,-192.8 212.44,-192.8 212.44,-228.8"/>
<text text-anchor="middle" x="158" y="-206.6" font-family="Times,serif" font-size="14.00">AppComponent </text>
</g>
<!-- AppModule&#45;&gt;AppComponent  -->
<g id="edge3" class="edge">
<title>AppModule&#45;&gt;AppComponent </title>
<path fill="none" stroke="black" stroke-dasharray="1,5" d="M158,-152.81C158,-152.81 158,-182.65 158,-182.65"/>
<polygon fill="black" stroke="black" points="154.5,-182.65 158,-192.65 161.5,-182.65 154.5,-182.65"/>
</g>
<!-- AppRoutingModule -->
<g id="node3" class="node">
<title>AppRoutingModule</title>
<polygon fill="#8dd3c7" stroke="black" points="152.27,-84.8 149.27,-88.8 128.27,-88.8 125.27,-84.8 23.73,-84.8 23.73,-48.8 152.27,-48.8 152.27,-84.8"/>
<text text-anchor="middle" x="88" y="-62.6" font-family="Times,serif" font-size="14.00">AppRoutingModule</text>
</g>
<!-- AppRoutingModule&#45;&gt;AppModule -->
<g id="edge2" class="edge">
<title>AppRoutingModule&#45;&gt;AppModule</title>
<path fill="none" stroke="black" d="M134.28,-85.02C134.28,-85.02 134.28,-106.53 134.28,-106.53"/>
<polygon fill="black" stroke="black" points="130.78,-106.53 134.28,-116.53 137.78,-106.53 130.78,-106.53"/>
</g>
<!-- AutoCompleteComponent -->
<g id="node5" class="node">
<title>AutoCompleteComponent</title>
<polygon fill="#ffffb3" stroke="black" points="587.77,-84.8 424.23,-84.8 424.23,-48.8 587.77,-48.8 587.77,-84.8"/>
<text text-anchor="middle" x="506" y="-62.6" font-family="Times,serif" font-size="14.00">AutoCompleteComponent</text>
</g>
<!-- AutoCompleteModule -->
<g id="node7" class="node">
<title>AutoCompleteModule</title>
<polygon fill="#8dd3c7" stroke="black" points="585.98,-152.8 582.98,-156.8 561.98,-156.8 558.98,-152.8 444.02,-152.8 444.02,-116.8 585.98,-116.8 585.98,-152.8"/>
<text text-anchor="middle" x="515" y="-130.6" font-family="Times,serif" font-size="14.00">AutoCompleteModule</text>
</g>
<!-- AutoCompleteComponent&#45;&gt;AutoCompleteModule -->
<g id="edge4" class="edge">
<title>AutoCompleteComponent&#45;&gt;AutoCompleteModule</title>
<path fill="none" stroke="black" d="M515,-85.02C515,-85.02 515,-106.53 515,-106.53"/>
<polygon fill="black" stroke="black" points="511.5,-106.53 515,-116.53 518.5,-106.53 511.5,-106.53"/>
</g>
<!-- BoldPrefix -->
<g id="node6" class="node">
<title>BoldPrefix</title>
<polygon fill="#ffffb3" stroke="black" points="405.94,-84.8 328.06,-84.8 328.06,-48.8 405.94,-48.8 405.94,-84.8"/>
<text text-anchor="middle" x="367" y="-62.6" font-family="Times,serif" font-size="14.00">BoldPrefix</text>
</g>
<!-- BoldPrefix&#45;&gt;AutoCompleteModule -->
<g id="edge5" class="edge">
<title>BoldPrefix&#45;&gt;AutoCompleteModule</title>
<path fill="none" stroke="black" d="M377.74,-85.07C377.74,-103.36 377.74,-128.8 377.74,-128.8 377.74,-128.8 433.96,-128.8 433.96,-128.8"/>
<polygon fill="black" stroke="black" points="433.96,-132.3 443.96,-128.8 433.96,-125.3 433.96,-132.3"/>
</g>
<!-- AutoCompleteComponent  -->
<g id="node8" class="node">
<title>AutoCompleteComponent </title>
<polygon fill="#fb8072" stroke="black" points="587.77,-228.8 420.23,-228.8 420.23,-192.8 587.77,-192.8 587.77,-228.8"/>
<text text-anchor="middle" x="504" y="-206.6" font-family="Times,serif" font-size="14.00">AutoCompleteComponent </text>
</g>
<!-- AutoCompleteModule&#45;&gt;AutoCompleteComponent  -->
<g id="edge6" class="edge">
<title>AutoCompleteModule&#45;&gt;AutoCompleteComponent </title>
<path fill="none" stroke="black" stroke-dasharray="5,2" d="M472.4,-152.81C472.4,-152.81 472.4,-182.65 472.4,-182.65"/>
<polygon fill="black" stroke="black" points="468.9,-182.65 472.4,-192.65 475.9,-182.65 468.9,-182.65"/>
</g>
<!-- BoldPrefix  -->
<g id="node9" class="node">
<title>BoldPrefix </title>
<polygon fill="#fb8072" stroke="black" points="402.44,-228.8 321.56,-228.8 321.56,-192.8 402.44,-192.8 402.44,-228.8"/>
<text text-anchor="middle" x="362" y="-206.6" font-family="Times,serif" font-size="14.00">BoldPrefix </text>
</g>
<!-- AutoCompleteModule&#45;&gt;BoldPrefix  -->
<g id="edge7" class="edge">
<title>AutoCompleteModule&#45;&gt;BoldPrefix </title>
<path fill="none" stroke="black" stroke-dasharray="5,2" d="M443.95,-140.8C400.42,-140.8 353.01,-140.8 353.01,-140.8 353.01,-140.8 353.01,-182.77 353.01,-182.77"/>
<polygon fill="black" stroke="black" points="349.51,-182.77 353.01,-192.77 356.51,-182.77 349.51,-182.77"/>
</g>
<!-- CountryPickerModule -->
<g id="node11" class="node">
<title>CountryPickerModule</title>
<polygon fill="#8dd3c7" stroke="black" points="857.7,-228.8 854.7,-232.8 833.7,-232.8 830.7,-228.8 716.3,-228.8 716.3,-192.8 857.7,-192.8 857.7,-228.8"/>
<text text-anchor="middle" x="787" y="-206.6" font-family="Times,serif" font-size="14.00">CountryPickerModule</text>
</g>
<!-- AutoCompleteModule&#45;&gt;CountryPickerModule -->
<g id="edge9" class="edge">
<title>AutoCompleteModule&#45;&gt;CountryPickerModule</title>
<path fill="none" stroke="black" d="M586.2,-134.8C598.64,-134.8 607.7,-134.8 607.7,-134.8 607.7,-134.8 607.7,-210.8 607.7,-210.8 607.7,-210.8 706.39,-210.8 706.39,-210.8"/>
<polygon fill="black" stroke="black" points="706.39,-214.3 716.39,-210.8 706.39,-207.3 706.39,-214.3"/>
</g>
<!-- IngredientPickerModule -->
<g id="node16" class="node">
<title>IngredientPickerModule</title>
<polygon fill="#8dd3c7" stroke="black" points="1386.34,-228.8 1383.34,-232.8 1362.34,-232.8 1359.34,-228.8 1233.66,-228.8 1233.66,-192.8 1386.34,-192.8 1386.34,-228.8"/>
<text text-anchor="middle" x="1310" y="-206.6" font-family="Times,serif" font-size="14.00">IngredientPickerModule</text>
</g>
<!-- AutoCompleteModule&#45;&gt;IngredientPickerModule -->
<g id="edge18" class="edge">
<title>AutoCompleteModule&#45;&gt;IngredientPickerModule</title>
<path fill="none" stroke="black" d="M529.2,-152.91C529.2,-162.7 529.2,-172.8 529.2,-172.8 529.2,-172.8 1262.2,-172.8 1262.2,-172.8 1262.2,-172.8 1262.2,-182.69 1262.2,-182.69"/>
<polygon fill="black" stroke="black" points="1258.7,-182.69 1262.2,-192.69 1265.7,-182.69 1258.7,-182.69"/>
</g>
<!-- SimpleServiceModule -->
<g id="node17" class="node">
<title>SimpleServiceModule</title>
<polygon fill="#8dd3c7" stroke="black" points="1545.7,-228.8 1542.7,-232.8 1521.7,-232.8 1518.7,-228.8 1404.3,-228.8 1404.3,-192.8 1545.7,-192.8 1545.7,-228.8"/>
<text text-anchor="middle" x="1475" y="-206.6" font-family="Times,serif" font-size="14.00">SimpleServiceModule</text>
</g>
<!-- AutoCompleteModule&#45;&gt;SimpleServiceModule -->
<g id="edge22" class="edge">
<title>AutoCompleteModule&#45;&gt;SimpleServiceModule</title>
<path fill="none" stroke="black" d="M557.6,-152.97C557.6,-156.85 557.6,-159.8 557.6,-159.8 557.6,-159.8 1475,-159.8 1475,-159.8 1475,-159.8 1475,-182.68 1475,-182.68"/>
<polygon fill="black" stroke="black" points="1471.5,-182.68 1475,-192.68 1478.5,-182.68 1471.5,-182.68"/>
</g>
<!-- TeamPickerModule -->
<g id="node18" class="node">
<title>TeamPickerModule</title>
<polygon fill="#8dd3c7" stroke="black" points="1215.69,-228.8 1212.69,-232.8 1191.69,-232.8 1188.69,-228.8 1088.31,-228.8 1088.31,-192.8 1215.69,-192.8 1215.69,-228.8"/>
<text text-anchor="middle" x="1152" y="-206.6" font-family="Times,serif" font-size="14.00">TeamPickerModule</text>
</g>
<!-- AutoCompleteModule&#45;&gt;TeamPickerModule -->
<g id="edge26" class="edge">
<title>AutoCompleteModule&#45;&gt;TeamPickerModule</title>
<path fill="none" stroke="black" d="M500.8,-152.99C500.8,-167.98 500.8,-186.8 500.8,-186.8 500.8,-186.8 1102.72,-186.8 1102.72,-186.8 1102.72,-186.8 1102.72,-187.38 1102.72,-187.38"/>
<polygon fill="black" stroke="black" points="1099.22,-182.61 1102.72,-192.61 1106.22,-182.61 1099.22,-182.61"/>
</g>
<!-- CountryPickerComponent -->
<g id="node10" class="node">
<title>CountryPickerComponent</title>
<polygon fill="#ffffb3" stroke="black" points="790.48,-152.8 627.52,-152.8 627.52,-116.8 790.48,-116.8 790.48,-152.8"/>
<text text-anchor="middle" x="709" y="-130.6" font-family="Times,serif" font-size="14.00">CountryPickerComponent</text>
</g>
<!-- CountryPickerComponent&#45;&gt;CountryPickerModule -->
<g id="edge8" class="edge">
<title>CountryPickerComponent&#45;&gt;CountryPickerModule</title>
<path fill="none" stroke="black" d="M753.45,-152.81C753.45,-152.81 753.45,-182.65 753.45,-182.65"/>
<polygon fill="black" stroke="black" points="749.95,-182.65 753.45,-192.65 756.95,-182.65 749.95,-182.65"/>
</g>
<!-- CountryPickerComponent  -->
<g id="node12" class="node">
<title>CountryPickerComponent </title>
<polygon fill="#fb8072" stroke="black" points="870.48,-304.8 703.52,-304.8 703.52,-268.8 870.48,-268.8 870.48,-304.8"/>
<text text-anchor="middle" x="787" y="-282.6" font-family="Times,serif" font-size="14.00">CountryPickerComponent </text>
</g>
<!-- CountryPickerModule&#45;&gt;CountryPickerComponent  -->
<g id="edge10" class="edge">
<title>CountryPickerModule&#45;&gt;CountryPickerComponent </title>
<path fill="none" stroke="black" stroke-dasharray="5,2" d="M787,-228.81C787,-228.81 787,-258.65 787,-258.65"/>
<polygon fill="black" stroke="black" points="783.5,-258.65 787,-268.65 790.5,-258.65 783.5,-258.65"/>
</g>
<!-- HomePageModule -->
<g id="node15" class="node">
<title>HomePageModule</title>
<polygon fill="#8dd3c7" stroke="black" points="1212.47,-304.8 1209.47,-308.8 1188.47,-308.8 1185.47,-304.8 1091.53,-304.8 1091.53,-268.8 1212.47,-268.8 1212.47,-304.8"/>
<text text-anchor="middle" x="1152" y="-282.6" font-family="Times,serif" font-size="14.00">HomePageModule</text>
</g>
<!-- CountryPickerModule&#45;&gt;HomePageModule -->
<g id="edge13" class="edge">
<title>CountryPickerModule&#45;&gt;HomePageModule</title>
<path fill="none" stroke="black" d="M857.61,-210.8C878.35,-210.8 895.59,-210.8 895.59,-210.8 895.59,-210.8 895.59,-292.8 895.59,-292.8 895.59,-292.8 1081.23,-292.8 1081.23,-292.8"/>
<polygon fill="black" stroke="black" points="1081.23,-296.3 1091.23,-292.8 1081.23,-289.3 1081.23,-296.3"/>
</g>
<!-- PeopleService -->
<g id="node13" class="node">
<title>PeopleService</title>
<ellipse fill="#fdb462" stroke="black" cx="880" cy="-134.8" rx="66.05" ry="18"/>
<text text-anchor="middle" x="880" y="-130.6" font-family="Times,serif" font-size="14.00">PeopleService</text>
</g>
<!-- PeopleService&#45;&gt;CountryPickerModule -->
<g id="edge11" class="edge">
<title>PeopleService&#45;&gt;CountryPickerModule</title>
<path fill="none" stroke="black" d="M835.66,-148.39C835.66,-148.39 835.66,-182.76 835.66,-182.76"/>
<polygon fill="black" stroke="black" points="832.16,-182.76 835.66,-192.76 839.16,-182.76 832.16,-182.76"/>
</g>
<!-- PeopleService&#45;&gt;TeamPickerModule -->
<g id="edge28" class="edge">
<title>PeopleService&#45;&gt;TeamPickerModule</title>
<path fill="none" stroke="black" d="M920.93,-149.04C920.93,-162.22 920.93,-179.8 920.93,-179.8 920.93,-179.8 1117.04,-179.8 1117.04,-179.8 1117.04,-179.8 1117.04,-182.77 1117.04,-182.77"/>
<polygon fill="black" stroke="black" points="1113.54,-182.77 1117.04,-192.77 1120.54,-182.77 1113.54,-182.77"/>
</g>
<!-- HomePage -->
<g id="node14" class="node">
<title>HomePage</title>
<polygon fill="#ffffb3" stroke="black" points="1063.92,-228.8 986.08,-228.8 986.08,-192.8 1063.92,-192.8 1063.92,-228.8"/>
<text text-anchor="middle" x="1025" y="-206.6" font-family="Times,serif" font-size="14.00">HomePage</text>
</g>
<!-- HomePage&#45;&gt;HomePageModule -->
<g id="edge12" class="edge">
<title>HomePage&#45;&gt;HomePageModule</title>
<path fill="none" stroke="black" d="M1025,-228.83C1025,-249.57 1025,-280.8 1025,-280.8 1025,-280.8 1081.48,-280.8 1081.48,-280.8"/>
<polygon fill="black" stroke="black" points="1081.48,-284.3 1091.48,-280.8 1081.48,-277.3 1081.48,-284.3"/>
</g>
<!-- IngredientPickerModule&#45;&gt;HomePageModule -->
<g id="edge14" class="edge">
<title>IngredientPickerModule&#45;&gt;HomePageModule</title>
<path fill="none" stroke="black" d="M1310,-228.81C1310,-251.29 1310,-286.8 1310,-286.8 1310,-286.8 1222.64,-286.8 1222.64,-286.8"/>
<polygon fill="black" stroke="black" points="1222.64,-283.3 1212.64,-286.8 1222.64,-290.3 1222.64,-283.3"/>
</g>
<!-- IngredientPickerComponent  -->
<g id="node20" class="node">
<title>IngredientPickerComponent </title>
<polygon fill="#fb8072" stroke="black" points="1348.13,-152.8 1169.87,-152.8 1169.87,-116.8 1348.13,-116.8 1348.13,-152.8"/>
<text text-anchor="middle" x="1259" y="-130.6" font-family="Times,serif" font-size="14.00">IngredientPickerComponent </text>
</g>
<!-- IngredientPickerModule&#45;&gt;IngredientPickerComponent  -->
<g id="edge19" class="edge">
<title>IngredientPickerModule&#45;&gt;IngredientPickerComponent </title>
<path fill="none" stroke="black" stroke-dasharray="5,2" d="M1319.44,-192.79C1319.44,-192.79 1319.44,-162.95 1319.44,-162.95"/>
<polygon fill="black" stroke="black" points="1322.94,-162.95 1319.44,-152.95 1315.94,-162.95 1322.94,-162.95"/>
</g>
<!-- SimpleServiceModule&#45;&gt;HomePageModule -->
<g id="edge15" class="edge">
<title>SimpleServiceModule&#45;&gt;HomePageModule</title>
<path fill="none" stroke="black" d="M1475,-228.83C1475,-253.78 1475,-295.8 1475,-295.8 1475,-295.8 1222.75,-295.8 1222.75,-295.8"/>
<polygon fill="black" stroke="black" points="1222.75,-292.3 1212.75,-295.8 1222.75,-299.3 1222.75,-292.3"/>
</g>
<!-- SimpleServiceComponent  -->
<g id="node23" class="node">
<title>SimpleServiceComponent </title>
<polygon fill="#fb8072" stroke="black" points="1920.48,-152.8 1753.52,-152.8 1753.52,-116.8 1920.48,-116.8 1920.48,-152.8"/>
<text text-anchor="middle" x="1837" y="-130.6" font-family="Times,serif" font-size="14.00">SimpleServiceComponent </text>
</g>
<!-- SimpleServiceModule&#45;&gt;SimpleServiceComponent  -->
<g id="edge23" class="edge">
<title>SimpleServiceModule&#45;&gt;SimpleServiceComponent </title>
<path fill="none" stroke="black" stroke-dasharray="5,2" d="M1545.96,-210.8C1629.68,-210.8 1757.64,-210.8 1757.64,-210.8 1757.64,-210.8 1757.64,-162.81 1757.64,-162.81"/>
<polygon fill="black" stroke="black" points="1761.14,-162.81 1757.64,-152.81 1754.14,-162.81 1761.14,-162.81"/>
</g>
<!-- TeamPickerModule&#45;&gt;HomePageModule -->
<g id="edge16" class="edge">
<title>TeamPickerModule&#45;&gt;HomePageModule</title>
<path fill="none" stroke="black" d="M1131.84,-228.81C1131.84,-228.81 1131.84,-258.65 1131.84,-258.65"/>
<polygon fill="black" stroke="black" points="1128.34,-258.65 1131.84,-268.65 1135.34,-258.65 1128.34,-258.65"/>
</g>
<!-- TeamPickerComponent  -->
<g id="node26" class="node">
<title>TeamPickerComponent </title>
<polygon fill="#fb8072" stroke="black" points="1738.47,-304.8 1585.53,-304.8 1585.53,-268.8 1738.47,-268.8 1738.47,-304.8"/>
<text text-anchor="middle" x="1662" y="-282.6" font-family="Times,serif" font-size="14.00">TeamPickerComponent </text>
</g>
<!-- TeamPickerModule&#45;&gt;TeamPickerComponent  -->
<g id="edge27" class="edge">
<title>TeamPickerModule&#45;&gt;TeamPickerComponent </title>
<path fill="none" stroke="black" stroke-dasharray="5,2" d="M1215.68,-210.8C1221.11,-210.8 1224.59,-210.8 1224.59,-210.8 1224.59,-210.8 1224.59,-277.8 1224.59,-277.8 1224.59,-277.8 1575.56,-277.8 1575.56,-277.8"/>
<polygon fill="black" stroke="black" points="1575.56,-281.3 1585.56,-277.8 1575.56,-274.3 1575.56,-281.3"/>
</g>
<!-- IngredientPickerComponent -->
<g id="node19" class="node">
<title>IngredientPickerComponent</title>
<polygon fill="#ffffb3" stroke="black" points="1546.13,-152.8 1371.87,-152.8 1371.87,-116.8 1546.13,-116.8 1546.13,-152.8"/>
<text text-anchor="middle" x="1459" y="-130.6" font-family="Times,serif" font-size="14.00">IngredientPickerComponent</text>
</g>
<!-- IngredientPickerComponent&#45;&gt;IngredientPickerModule -->
<g id="edge17" class="edge">
<title>IngredientPickerComponent&#45;&gt;IngredientPickerModule</title>
<path fill="none" stroke="black" d="M1379.05,-152.81C1379.05,-152.81 1379.05,-182.65 1379.05,-182.65"/>
<polygon fill="black" stroke="black" points="1375.55,-182.65 1379.05,-192.65 1382.55,-182.65 1375.55,-182.65"/>
</g>
<!-- IngredientService -->
<g id="node21" class="node">
<title>IngredientService</title>
<ellipse fill="#fdb462" stroke="black" cx="1066" cy="-134.8" rx="79.85" ry="18"/>
<text text-anchor="middle" x="1066" y="-130.6" font-family="Times,serif" font-size="14.00">IngredientService</text>
</g>
<!-- IngredientService&#45;&gt;IngredientPickerModule -->
<g id="edge20" class="edge">
<title>IngredientService&#45;&gt;IngredientPickerModule</title>
<path fill="none" stroke="black" d="M1131.36,-145.28C1131.36,-154.61 1131.36,-166.8 1131.36,-166.8 1131.36,-166.8 1290.82,-166.8 1290.82,-166.8 1290.82,-166.8 1290.82,-182.65 1290.82,-182.65"/>
<polygon fill="black" stroke="black" points="1287.32,-182.65 1290.82,-192.65 1294.32,-182.65 1287.32,-182.65"/>
</g>
<!-- SimpleServiceComponent -->
<g id="node22" class="node">
<title>SimpleServiceComponent</title>
<polygon fill="#ffffb3" stroke="black" points="2106.48,-152.8 1943.52,-152.8 1943.52,-116.8 2106.48,-116.8 2106.48,-152.8"/>
<text text-anchor="middle" x="2025" y="-130.6" font-family="Times,serif" font-size="14.00">SimpleServiceComponent</text>
</g>
<!-- SimpleServiceComponent&#45;&gt;SimpleServiceModule -->
<g id="edge21" class="edge">
<title>SimpleServiceComponent&#45;&gt;SimpleServiceModule</title>
<path fill="none" stroke="black" d="M2025,-152.83C2025,-177.78 2025,-219.8 2025,-219.8 2025,-219.8 1555.78,-219.8 1555.78,-219.8"/>
<polygon fill="black" stroke="black" points="1555.78,-216.3 1545.78,-219.8 1555.78,-223.3 1555.78,-216.3"/>
</g>
<!-- CountryService -->
<g id="node24" class="node">
<title>CountryService</title>
<ellipse fill="#fdb462" stroke="black" cx="1658" cy="-134.8" rx="71.79" ry="18"/>
<text text-anchor="middle" x="1658" y="-130.6" font-family="Times,serif" font-size="14.00">CountryService</text>
</g>
<!-- CountryService&#45;&gt;SimpleServiceModule -->
<g id="edge24" class="edge">
<title>CountryService&#45;&gt;SimpleServiceModule</title>
<path fill="none" stroke="black" d="M1658,-153.11C1658,-172.95 1658,-201.8 1658,-201.8 1658,-201.8 1555.75,-201.8 1555.75,-201.8"/>
<polygon fill="black" stroke="black" points="1555.75,-198.3 1545.75,-201.8 1555.75,-205.3 1555.75,-198.3"/>
</g>
<!-- TeamPickerComponent -->
<g id="node25" class="node">
<title>TeamPickerComponent</title>
<polygon fill="#ffffb3" stroke="black" points="1910.47,-304.8 1761.53,-304.8 1761.53,-268.8 1910.47,-268.8 1910.47,-304.8"/>
<text text-anchor="middle" x="1836" y="-282.6" font-family="Times,serif" font-size="14.00">TeamPickerComponent</text>
</g>
<!-- TeamPickerComponent&#45;&gt;TeamPickerModule -->
<g id="edge25" class="edge">
<title>TeamPickerComponent&#45;&gt;TeamPickerModule</title>
<path fill="none" stroke="black" d="M1836,-268.69C1836,-258.9 1836,-248.8 1836,-248.8 1836,-248.8 1172.16,-248.8 1172.16,-248.8 1172.16,-248.8 1172.16,-238.91 1172.16,-238.91"/>
<polygon fill="black" stroke="black" points="1175.66,-238.91 1172.16,-228.91 1168.66,-238.91 1175.66,-238.91"/>
</g>
</g>
</svg>
