<?xml version="1.0" encoding="UTF-8" standalone="no"?>
<!DOCTYPE svg PUBLIC "-//W3C//DTD SVG 1.1//EN"
 "http://www.w3.org/Graphics/SVG/1.1/DTD/svg11.dtd">
<!-- Generated by graphviz version 2.40.1 (20161225.0304)
 -->
<!-- Title: dependencies Pages: 1 -->
<svg width="2277pt" height="374pt"
 viewBox="0.00 0.00 2277.00 374.00" xmlns="http://www.w3.org/2000/svg" xmlns:xlink="http://www.w3.org/1999/xlink">
<g id="graph0" class="graph" transform="scale(1 1) rotate(0) translate(4 370)">
<title>dependencies</title>
<polygon fill="#ffffff" stroke="transparent" points="-4,4 -4,-370 2273,-370 2273,4 -4,4"/>
<text text-anchor="start" x="1113.5091" y="-42.4" font-family="sans-serif" font-weight="bold" font-size="14.00" fill="#000000">Legend</text>
<polygon fill="#ffffb3" stroke="transparent" points="900.5,-10 900.5,-30 920.5,-30 920.5,-10 900.5,-10"/>
<text text-anchor="start" x="924.129" y="-15.4" font-family="sans-serif" font-size="14.00" fill="#000000"> &#160;Declarations</text>
<polygon fill="#8dd3c7" stroke="transparent" points="1013.5,-10 1013.5,-30 1033.5,-30 1033.5,-10 1013.5,-10"/>
<text text-anchor="start" x="1037.2251" y="-15.4" font-family="sans-serif" font-size="14.00" fill="#000000"> &#160;Module</text>
<polygon fill="#80b1d3" stroke="transparent" points="1099.5,-10 1099.5,-30 1119.5,-30 1119.5,-10 1099.5,-10"/>
<text text-anchor="start" x="1123.2812" y="-15.4" font-family="sans-serif" font-size="14.00" fill="#000000"> &#160;Bootstrap</text>
<polygon fill="#fdb462" stroke="transparent" points="1196.5,-10 1196.5,-30 1216.5,-30 1216.5,-10 1196.5,-10"/>
<text text-anchor="start" x="1220.1732" y="-15.4" font-family="sans-serif" font-size="14.00" fill="#000000"> &#160;Providers</text>
<polygon fill="#fb8072" stroke="transparent" points="1292.5,-10 1292.5,-30 1312.5,-30 1312.5,-10 1292.5,-10"/>
<text text-anchor="start" x="1316.2258" y="-15.4" font-family="sans-serif" font-size="14.00" fill="#000000"> &#160;Exports</text>
<g id="clust1" class="cluster">
<title>cluster_AppModule</title>
<polygon fill="none" stroke="#000000" stroke-dasharray="1,5" points="8,-70 8,-282 298,-282 298,-70 8,-70"/>
</g>
<g id="clust2" class="cluster">
<title>cluster_AppModule_declarations</title>
<polygon fill="none" stroke="#000000" points="168,-78 168,-130 290,-130 290,-78 168,-78"/>
</g>
<g id="clust4" class="cluster">
<title>cluster_AppModule_imports</title>
<polygon fill="none" stroke="#000000" points="16,-78 16,-130 160,-130 160,-78 16,-78"/>
</g>
<g id="clust6" class="cluster">
<title>cluster_AppModule_bootstrap</title>
<polygon fill="none" stroke="#000000" points="96,-222 96,-274 220,-274 220,-222 96,-222"/>
</g>
<g id="clust14" class="cluster">
<title>cluster_AutoCompleteModule</title>
<polygon fill="none" stroke="#000000" stroke-dasharray="1,5" points="306,-70 306,-282 464,-282 464,-70 306,-70"/>
</g>
<g id="clust15" class="cluster">
<title>cluster_AutoCompleteModule_declarations</title>
<polygon fill="none" stroke="#000000" points="338,-78 338,-130 432,-130 432,-78 338,-78"/>
</g>
<g id="clust18" class="cluster">
<title>cluster_AutoCompleteModule_exports</title>
<polygon fill="none" stroke="#000000" points="337,-222 337,-274 433,-274 433,-222 337,-222"/>
</g>
<g id="clust21" class="cluster">
<title>cluster_CustomTemplateModule</title>
<polygon fill="none" stroke="#000000" stroke-dasharray="1,5" points="472,-138 472,-358 852,-358 852,-138 472,-138"/>
</g>
<g id="clust22" class="cluster">
<title>cluster_CustomTemplateModule_declarations</title>
<polygon fill="none" stroke="#000000" points="480,-146 480,-198 674,-198 674,-146 480,-146"/>
</g>
<g id="clust25" class="cluster">
<title>cluster_CustomTemplateModule_exports</title>
<polygon fill="none" stroke="#000000" points="563,-298 563,-350 761,-350 761,-298 563,-298"/>
</g>
<g id="clust27" class="cluster">
<title>cluster_CustomTemplateModule_providers</title>
<polygon fill="none" stroke="#000000" points="682,-146 682,-198 844,-198 844,-146 682,-146"/>
</g>
<g id="clust28" class="cluster">
<title>cluster_HomePageModule</title>
<polygon fill="none" stroke="#000000" stroke-dasharray="1,5" points="860,-214 860,-350 1461,-350 1461,-214 860,-214"/>
</g>
<g id="clust29" class="cluster">
<title>cluster_HomePageModule_declarations</title>
<polygon fill="none" stroke="#000000" points="868,-222 868,-274 962,-274 962,-222 868,-222"/>
</g>
<g id="clust31" class="cluster">
<title>cluster_HomePageModule_imports</title>
<polygon fill="none" stroke="#000000" points="970,-222 970,-274 1453,-274 1453,-222 970,-222"/>
</g>
<g id="clust35" class="cluster">
<title>cluster_MultiFunctionModule</title>
<polygon fill="none" stroke="#000000" stroke-dasharray="1,5" points="1469,-290 1469,-358 1853,-358 1853,-290 1469,-290"/>
</g>
<g id="clust36" class="cluster">
<title>cluster_MultiFunctionModule_declarations</title>
<polygon fill="none" stroke="#000000" points="1667,-298 1667,-350 1845,-350 1845,-298 1667,-298"/>
</g>
<g id="clust39" class="cluster">
<title>cluster_MultiFunctionModule_exports</title>
<polygon fill="none" stroke="#000000" points="1477,-298 1477,-350 1659,-350 1659,-298 1477,-298"/>
</g>
<g id="clust42" class="cluster">
<title>cluster_SimpleFunctionModule</title>
<polygon fill="none" stroke="#000000" stroke-dasharray="1,5" points="1861,-290 1861,-358 2261,-358 2261,-290 1861,-290"/>
</g>
<g id="clust43" class="cluster">
<title>cluster_SimpleFunctionModule_declarations</title>
<polygon fill="none" stroke="#000000" points="2067,-298 2067,-350 2253,-350 2253,-298 2067,-298"/>
</g>
<g id="clust46" class="cluster">
<title>cluster_SimpleFunctionModule_exports</title>
<polygon fill="none" stroke="#000000" points="1869,-298 1869,-350 2059,-350 2059,-298 1869,-298"/>
</g>
<g id="clust49" class="cluster">
<title>cluster_SimpleServiceModule</title>
<polygon fill="none" stroke="#000000" stroke-dasharray="1,5" points="1117,-138 1117,-206 1659,-206 1659,-138 1117,-138"/>
</g>
<g id="clust50" class="cluster">
<title>cluster_SimpleServiceModule_declarations</title>
<polygon fill="none" stroke="#000000" points="1473,-146 1473,-198 1651,-198 1651,-146 1473,-146"/>
</g>
<g id="clust53" class="cluster">
<title>cluster_SimpleServiceModule_exports</title>
<polygon fill="none" stroke="#000000" points="1283,-146 1283,-198 1465,-198 1465,-146 1283,-146"/>
</g>
<g id="clust55" class="cluster">
<title>cluster_SimpleServiceModule_providers</title>
<polygon fill="none" stroke="#000000" points="1125,-146 1125,-198 1275,-198 1275,-146 1125,-146"/>
</g>
<!-- AppComponent -->
<g id="node1" class="node">
<title>AppComponent</title>
<polygon fill="#ffffb3" stroke="#000000" points="281.9399,-122 176.0601,-122 176.0601,-86 281.9399,-86 281.9399,-122"/>
<text text-anchor="middle" x="229" y="-99.8" font-family="Times,serif" font-size="14.00" fill="#000000">AppComponent</text>
</g>
<!-- AppModule -->
<g id="node2" class="node">
<title>AppModule</title>
<polygon fill="#8dd3c7" stroke="#000000" points="199.6571,-190 196.6571,-194 175.6571,-194 172.6571,-190 116.3429,-190 116.3429,-154 199.6571,-154 199.6571,-190"/>
<text text-anchor="middle" x="158" y="-167.8" font-family="Times,serif" font-size="14.00" fill="#000000">AppModule</text>
</g>
<!-- AppComponent&#45;&gt;AppModule -->
<g id="edge1" class="edge">
<title>AppComponent&#45;&gt;AppModule</title>
<path fill="none" stroke="#000000" d="M188.0544,-122.2228C188.0544,-122.2228 188.0544,-143.7269 188.0544,-143.7269"/>
<polygon fill="#000000" stroke="#000000" points="184.5544,-143.7269 188.0544,-153.7269 191.5544,-143.727 184.5544,-143.7269"/>
</g>
<!-- AppComponent  -->
<g id="node4" class="node">
<title>AppComponent </title>
<polygon fill="#80b1d3" stroke="#000000" points="212.439,-266 103.561,-266 103.561,-230 212.439,-230 212.439,-266"/>
<text text-anchor="middle" x="158" y="-243.8" font-family="Times,serif" font-size="14.00" fill="#000000">AppComponent </text>
</g>
<!-- AppModule&#45;&gt;AppComponent  -->
<g id="edge3" class="edge">
<title>AppModule&#45;&gt;AppComponent </title>
<path fill="none" stroke="#000000" stroke-dasharray="1,5" d="M158,-190.0109C158,-190.0109 158,-219.855 158,-219.855"/>
<polygon fill="#000000" stroke="#000000" points="154.5001,-219.8549 158,-229.855 161.5001,-219.855 154.5001,-219.8549"/>
</g>
<!-- AppRoutingModule -->
<g id="node3" class="node">
<title>AppRoutingModule</title>
<polygon fill="#8dd3c7" stroke="#000000" points="152.2744,-122 149.2744,-126 128.2744,-126 125.2744,-122 23.7256,-122 23.7256,-86 152.2744,-86 152.2744,-122"/>
<text text-anchor="middle" x="88" y="-99.8" font-family="Times,serif" font-size="14.00" fill="#000000">AppRoutingModule</text>
</g>
<!-- AppRoutingModule&#45;&gt;AppModule -->
<g id="edge2" class="edge">
<title>AppRoutingModule&#45;&gt;AppModule</title>
<path fill="none" stroke="#000000" d="M134.2795,-122.2228C134.2795,-122.2228 134.2795,-143.7269 134.2795,-143.7269"/>
<polygon fill="#000000" stroke="#000000" points="130.7795,-143.7269 134.2795,-153.7269 137.7795,-143.727 130.7795,-143.7269"/>
</g>
<!-- BoldPrefix -->
<g id="node5" class="node">
<title>BoldPrefix</title>
<polygon fill="#ffffb3" stroke="#000000" points="423.9374,-122 346.0626,-122 346.0626,-86 423.9374,-86 423.9374,-122"/>
<text text-anchor="middle" x="385" y="-99.8" font-family="Times,serif" font-size="14.00" fill="#000000">BoldPrefix</text>
</g>
<!-- AutoCompleteModule -->
<g id="node6" class="node">
<title>AutoCompleteModule</title>
<polygon fill="#8dd3c7" stroke="#000000" points="455.9846,-190 452.9846,-194 431.9846,-194 428.9846,-190 314.0154,-190 314.0154,-154 455.9846,-154 455.9846,-190"/>
<text text-anchor="middle" x="385" y="-167.8" font-family="Times,serif" font-size="14.00" fill="#000000">AutoCompleteModule</text>
</g>
<!-- BoldPrefix&#45;&gt;AutoCompleteModule -->
<g id="edge4" class="edge">
<title>BoldPrefix&#45;&gt;AutoCompleteModule</title>
<path fill="none" stroke="#000000" d="M385,-122.2228C385,-122.2228 385,-143.7269 385,-143.7269"/>
<polygon fill="#000000" stroke="#000000" points="381.5001,-143.7269 385,-153.7269 388.5001,-143.727 381.5001,-143.7269"/>
</g>
<!-- BoldPrefix  -->
<g id="node7" class="node">
<title>BoldPrefix </title>
<polygon fill="#fb8072" stroke="#000000" points="425.4362,-266 344.5638,-266 344.5638,-230 425.4362,-230 425.4362,-266"/>
<text text-anchor="middle" x="385" y="-243.8" font-family="Times,serif" font-size="14.00" fill="#000000">BoldPrefix </text>
</g>
<!-- AutoCompleteModule&#45;&gt;BoldPrefix  -->
<g id="edge5" class="edge">
<title>AutoCompleteModule&#45;&gt;BoldPrefix </title>
<path fill="none" stroke="#000000" stroke-dasharray="5,2" d="M385,-190.0109C385,-190.0109 385,-219.855 385,-219.855"/>
<polygon fill="#000000" stroke="#000000" points="381.5001,-219.8549 385,-229.855 388.5001,-219.855 381.5001,-219.8549"/>
</g>
<!-- CustomTemplateModule -->
<g id="node9" class="node">
<title>CustomTemplateModule</title>
<polygon fill="#8dd3c7" stroke="#000000" points="739.9804,-266 736.9804,-270 715.9804,-270 712.9804,-266 584.0196,-266 584.0196,-230 739.9804,-230 739.9804,-266"/>
<text text-anchor="middle" x="662" y="-243.8" font-family="Times,serif" font-size="14.00" fill="#000000">CustomTemplateModule</text>
</g>
<!-- AutoCompleteModule&#45;&gt;CustomTemplateModule -->
<g id="edge7" class="edge">
<title>AutoCompleteModule&#45;&gt;CustomTemplateModule</title>
<path fill="none" stroke="#000000" d="M449.8875,-190.0109C449.8875,-212.4852 449.8875,-248 449.8875,-248 449.8875,-248 573.9208,-248 573.9208,-248"/>
<polygon fill="#000000" stroke="#000000" points="573.9208,-251.5001 583.9208,-248 573.9207,-244.5001 573.9208,-251.5001"/>
</g>
<!-- MultiFunctionModule -->
<g id="node14" class="node">
<title>MultiFunctionModule</title>
<polygon fill="#8dd3c7" stroke="#000000" points="1118.4453,-266 1115.4453,-270 1094.4453,-270 1091.4453,-266 977.5547,-266 977.5547,-230 1118.4453,-230 1118.4453,-266"/>
<text text-anchor="middle" x="1048" y="-243.8" font-family="Times,serif" font-size="14.00" fill="#000000">MultiFunctionModule</text>
</g>
<!-- AutoCompleteModule&#45;&gt;MultiFunctionModule -->
<g id="edge16" class="edge">
<title>AutoCompleteModule&#45;&gt;MultiFunctionModule</title>
<path fill="none" stroke="#000000" d="M431.5729,-190.0511C431.5729,-204.373 431.5729,-222 431.5729,-222 431.5729,-222 1024.5926,-222 1024.5926,-222 1024.5926,-222 1024.5926,-222.7942 1024.5926,-222.7942"/>
<polygon fill="#000000" stroke="#000000" points="1021.0927,-219.9421 1024.5926,-229.9421 1028.0927,-219.9422 1021.0927,-219.9421"/>
</g>
<!-- SimpleFunctionModule -->
<g id="node15" class="node">
<title>SimpleFunctionModule</title>
<polygon fill="#8dd3c7" stroke="#000000" points="1285.4972,-266 1282.4972,-270 1261.4972,-270 1258.4972,-266 1136.5028,-266 1136.5028,-230 1285.4972,-230 1285.4972,-266"/>
<text text-anchor="middle" x="1211" y="-243.8" font-family="Times,serif" font-size="14.00" fill="#000000">SimpleFunctionModule</text>
</g>
<!-- AutoCompleteModule&#45;&gt;SimpleFunctionModule -->
<g id="edge20" class="edge">
<title>AutoCompleteModule&#45;&gt;SimpleFunctionModule</title>
<path fill="none" stroke="#000000" d="M437.6778,-190.0555C437.6778,-201.439 437.6778,-214 437.6778,-214 437.6778,-214 1180.1192,-214 1180.1192,-214 1180.1192,-214 1180.1192,-219.8056 1180.1192,-219.8056"/>
<polygon fill="#000000" stroke="#000000" points="1176.6193,-219.8055 1180.1192,-229.8056 1183.6193,-219.8056 1176.6193,-219.8055"/>
</g>
<!-- SimpleServiceModule -->
<g id="node16" class="node">
<title>SimpleServiceModule</title>
<polygon fill="#8dd3c7" stroke="#000000" points="1444.6965,-266 1441.6965,-270 1420.6965,-270 1417.6965,-266 1303.3035,-266 1303.3035,-230 1444.6965,-230 1444.6965,-266"/>
<text text-anchor="middle" x="1374" y="-243.8" font-family="Times,serif" font-size="14.00" fill="#000000">SimpleServiceModule</text>
</g>
<!-- AutoCompleteModule&#45;&gt;SimpleServiceModule -->
<g id="edge24" class="edge">
<title>AutoCompleteModule&#45;&gt;SimpleServiceModule</title>
<path fill="none" stroke="#000000" d="M443.7826,-190.1944C443.7826,-198.2782 443.7826,-206 443.7826,-206 443.7826,-206 1338.7009,-206 1338.7009,-206 1338.7009,-206 1338.7009,-219.9445 1338.7009,-219.9445"/>
<polygon fill="#000000" stroke="#000000" points="1335.201,-219.9444 1338.7009,-229.9445 1342.201,-219.9445 1335.201,-219.9444"/>
</g>
<!-- CustomTemplateComponent -->
<g id="node8" class="node">
<title>CustomTemplateComponent</title>
<polygon fill="#ffffb3" stroke="#000000" points="665.7632,-190 488.2368,-190 488.2368,-154 665.7632,-154 665.7632,-190"/>
<text text-anchor="middle" x="577" y="-167.8" font-family="Times,serif" font-size="14.00" fill="#000000">CustomTemplateComponent</text>
</g>
<!-- CustomTemplateComponent&#45;&gt;CustomTemplateModule -->
<g id="edge6" class="edge">
<title>CustomTemplateComponent&#45;&gt;CustomTemplateModule</title>
<path fill="none" stroke="#000000" d="M624.9457,-190.0109C624.9457,-190.0109 624.9457,-219.855 624.9457,-219.855"/>
<polygon fill="#000000" stroke="#000000" points="621.4457,-219.8549 624.9457,-229.855 628.4457,-219.855 621.4457,-219.8549"/>
</g>
<!-- CustomTemplateComponent  -->
<g id="node10" class="node">
<title>CustomTemplateComponent </title>
<polygon fill="#fb8072" stroke="#000000" points="752.7632,-342 571.2368,-342 571.2368,-306 752.7632,-306 752.7632,-342"/>
<text text-anchor="middle" x="662" y="-319.8" font-family="Times,serif" font-size="14.00" fill="#000000">CustomTemplateComponent </text>
</g>
<!-- CustomTemplateModule&#45;&gt;CustomTemplateComponent  -->
<g id="edge8" class="edge">
<title>CustomTemplateModule&#45;&gt;CustomTemplateComponent </title>
<path fill="none" stroke="#000000" stroke-dasharray="5,2" d="M662,-266.0109C662,-266.0109 662,-295.855 662,-295.855"/>
<polygon fill="#000000" stroke="#000000" points="658.5001,-295.8549 662,-305.855 665.5001,-295.855 658.5001,-295.8549"/>
</g>
<!-- HomePageModule -->
<g id="node13" class="node">
<title>HomePageModule</title>
<polygon fill="#8dd3c7" stroke="#000000" points="1108.4734,-342 1105.4734,-346 1084.4734,-346 1081.4734,-342 987.5266,-342 987.5266,-306 1108.4734,-306 1108.4734,-342"/>
<text text-anchor="middle" x="1048" y="-319.8" font-family="Times,serif" font-size="14.00" fill="#000000">HomePageModule</text>
</g>
<!-- CustomTemplateModule&#45;&gt;HomePageModule -->
<g id="edge11" class="edge">
<title>CustomTemplateModule&#45;&gt;HomePageModule</title>
<path fill="none" stroke="#000000" d="M740.0381,-248C768.6564,-248 794.1836,-248 794.1836,-248 794.1836,-248 794.1836,-330 794.1836,-330 794.1836,-330 977.2046,-330 977.2046,-330"/>
<polygon fill="#000000" stroke="#000000" points="977.2047,-333.5001 987.2046,-330 977.2046,-326.5001 977.2047,-333.5001"/>
</g>
<!-- SimpleFunction -->
<g id="node11" class="node">
<title>SimpleFunction</title>
<ellipse fill="#fdb462" stroke="#000000" cx="763" cy="-172" rx="72.9722" ry="18"/>
<text text-anchor="middle" x="763" y="-167.8" font-family="Times,serif" font-size="14.00" fill="#000000">SimpleFunction</text>
</g>
<!-- SimpleFunction&#45;&gt;CustomTemplateModule -->
<g id="edge9" class="edge">
<title>SimpleFunction&#45;&gt;CustomTemplateModule</title>
<path fill="none" stroke="#000000" d="M715.1273,-185.5873C715.1273,-185.5873 715.1273,-219.9574 715.1273,-219.9574"/>
<polygon fill="#000000" stroke="#000000" points="711.6274,-219.9574 715.1273,-229.9574 718.6274,-219.9575 711.6274,-219.9574"/>
</g>
<!-- SimpleFunction&#45;&gt;MultiFunctionModule -->
<g id="edge18" class="edge">
<title>SimpleFunction&#45;&gt;MultiFunctionModule</title>
<path fill="none" stroke="#000000" d="M831.8288,-178C922.7235,-178 1071.4074,-178 1071.4074,-178 1071.4074,-178 1071.4074,-219.9733 1071.4074,-219.9733"/>
<polygon fill="#000000" stroke="#000000" points="1067.9075,-219.9732 1071.4074,-229.9733 1074.9075,-219.9733 1067.9075,-219.9732"/>
</g>
<!-- SimpleFunction&#45;&gt;SimpleFunctionModule -->
<g id="edge22" class="edge">
<title>SimpleFunction&#45;&gt;SimpleFunctionModule</title>
<path fill="none" stroke="#000000" d="M831.5971,-166C936.6704,-166 1125.4337,-166 1125.4337,-166 1125.4337,-166 1125.4337,-248 1125.4337,-248 1125.4337,-248 1126.5174,-248 1126.5174,-248"/>
<polygon fill="#000000" stroke="#000000" points="1126.2708,-251.5001 1136.2708,-248 1126.2707,-244.5001 1126.2708,-251.5001"/>
</g>
<!-- HomePage -->
<g id="node12" class="node">
<title>HomePage</title>
<polygon fill="#ffffb3" stroke="#000000" points="953.9248,-266 876.0752,-266 876.0752,-230 953.9248,-230 953.9248,-266"/>
<text text-anchor="middle" x="915" y="-243.8" font-family="Times,serif" font-size="14.00" fill="#000000">HomePage</text>
</g>
<!-- HomePage&#45;&gt;HomePageModule -->
<g id="edge10" class="edge">
<title>HomePage&#45;&gt;HomePageModule</title>
<path fill="none" stroke="#000000" d="M915,-266.0267C915,-286.7672 915,-318 915,-318 915,-318 977.338,-318 977.338,-318"/>
<polygon fill="#000000" stroke="#000000" points="977.3381,-321.5001 987.338,-318 977.338,-314.5001 977.3381,-321.5001"/>
</g>
<!-- MultiFunctionModule&#45;&gt;HomePageModule -->
<g id="edge12" class="edge">
<title>MultiFunctionModule&#45;&gt;HomePageModule</title>
<path fill="none" stroke="#000000" d="M1048,-266.0109C1048,-266.0109 1048,-295.855 1048,-295.855"/>
<polygon fill="#000000" stroke="#000000" points="1044.5001,-295.8549 1048,-305.855 1051.5001,-295.855 1044.5001,-295.8549"/>
</g>
<!-- MultiFunctionComponent  -->
<g id="node18" class="node">
<title>MultiFunctionComponent </title>
<polygon fill="#fb8072" stroke="#000000" points="1650.7274,-342 1485.2726,-342 1485.2726,-306 1650.7274,-306 1650.7274,-342"/>
<text text-anchor="middle" x="1568" y="-319.8" font-family="Times,serif" font-size="14.00" fill="#000000">MultiFunctionComponent </text>
</g>
<!-- MultiFunctionModule&#45;&gt;MultiFunctionComponent  -->
<g id="edge17" class="edge">
<title>MultiFunctionModule&#45;&gt;MultiFunctionComponent </title>
<path fill="none" stroke="#000000" stroke-dasharray="5,2" d="M1114.9771,-266.0263C1114.9771,-290.9773 1114.9771,-333 1114.9771,-333 1114.9771,-333 1475.1721,-333 1475.1721,-333"/>
<polygon fill="#000000" stroke="#000000" points="1475.1722,-336.5001 1485.1721,-333 1475.1721,-329.5001 1475.1722,-336.5001"/>
</g>
<!-- SimpleFunctionModule&#45;&gt;HomePageModule -->
<g id="edge13" class="edge">
<title>SimpleFunctionModule&#45;&gt;HomePageModule</title>
<path fill="none" stroke="#000000" d="M1248.2493,-266.308C1248.2493,-286.1455 1248.2493,-315 1248.2493,-315 1248.2493,-315 1118.6248,-315 1118.6248,-315"/>
<polygon fill="#000000" stroke="#000000" points="1118.6249,-311.5001 1108.6248,-315 1118.6248,-318.5001 1118.6249,-311.5001"/>
</g>
<!-- SimpleFunctionComponent  -->
<g id="node20" class="node">
<title>SimpleFunctionComponent </title>
<polygon fill="#fb8072" stroke="#000000" points="2051.28,-342 1876.72,-342 1876.72,-306 2051.28,-306 2051.28,-342"/>
<text text-anchor="middle" x="1964" y="-319.8" font-family="Times,serif" font-size="14.00" fill="#000000">SimpleFunctionComponent </text>
</g>
<!-- SimpleFunctionModule&#45;&gt;SimpleFunctionComponent  -->
<g id="edge21" class="edge">
<title>SimpleFunctionModule&#45;&gt;SimpleFunctionComponent </title>
<path fill="none" stroke="#000000" stroke-dasharray="5,2" d="M1211,-266.1097C1211,-275.897 1211,-286 1211,-286 1211,-286 1964,-286 1964,-286 1964,-286 1964,-295.8903 1964,-295.8903"/>
<polygon fill="#000000" stroke="#000000" points="1960.5001,-295.8903 1964,-305.8903 1967.5001,-295.8904 1960.5001,-295.8903"/>
</g>
<!-- SimpleServiceModule&#45;&gt;HomePageModule -->
<g id="edge14" class="edge">
<title>SimpleServiceModule&#45;&gt;HomePageModule</title>
<path fill="none" stroke="#000000" d="M1374,-266.0109C1374,-288.4852 1374,-324 1374,-324 1374,-324 1118.5541,-324 1118.5541,-324"/>
<polygon fill="#000000" stroke="#000000" points="1118.5541,-320.5001 1108.5541,-324 1118.5541,-327.5001 1118.5541,-320.5001"/>
</g>
<!-- SimpleServiceComponent  -->
<g id="node22" class="node">
<title>SimpleServiceComponent </title>
<polygon fill="#fb8072" stroke="#000000" points="1457.4797,-190 1290.5203,-190 1290.5203,-154 1457.4797,-154 1457.4797,-190"/>
<text text-anchor="middle" x="1374" y="-167.8" font-family="Times,serif" font-size="14.00" fill="#000000">SimpleServiceComponent </text>
</g>
<!-- SimpleServiceModule&#45;&gt;SimpleServiceComponent  -->
<g id="edge25" class="edge">
<title>SimpleServiceModule&#45;&gt;SimpleServiceComponent </title>
<path fill="none" stroke="#000000" stroke-dasharray="5,2" d="M1409.2991,-229.9891C1409.2991,-229.9891 1409.2991,-200.145 1409.2991,-200.145"/>
<polygon fill="#000000" stroke="#000000" points="1412.7992,-200.145 1409.2991,-190.145 1405.7992,-200.1451 1412.7992,-200.145"/>
</g>
<!-- MultiFunctionComponent -->
<g id="node17" class="node">
<title>MultiFunctionComponent</title>
<polygon fill="#ffffb3" stroke="#000000" points="1837.2274,-342 1674.7726,-342 1674.7726,-306 1837.2274,-306 1837.2274,-342"/>
<text text-anchor="middle" x="1756" y="-319.8" font-family="Times,serif" font-size="14.00" fill="#000000">MultiFunctionComponent</text>
</g>
<!-- MultiFunctionComponent&#45;&gt;MultiFunctionModule -->
<g id="edge15" class="edge">
<title>MultiFunctionComponent&#45;&gt;MultiFunctionModule</title>
<path fill="none" stroke="#000000" d="M1756,-305.793C1756,-300.4451 1756,-296 1756,-296 1756,-296 1111.7319,-296 1111.7319,-296 1111.7319,-296 1111.7319,-276.1467 1111.7319,-276.1467"/>
<polygon fill="#000000" stroke="#000000" points="1115.232,-276.1467 1111.7319,-266.1467 1108.232,-276.1468 1115.232,-276.1467"/>
</g>
<!-- SimpleFunctionComponent -->
<g id="node19" class="node">
<title>SimpleFunctionComponent</title>
<polygon fill="#ffffb3" stroke="#000000" points="2245.2799,-342 2074.7201,-342 2074.7201,-306 2245.2799,-306 2245.2799,-342"/>
<text text-anchor="middle" x="2160" y="-319.8" font-family="Times,serif" font-size="14.00" fill="#000000">SimpleFunctionComponent</text>
</g>
<!-- SimpleFunctionComponent&#45;&gt;SimpleFunctionModule -->
<g id="edge19" class="edge">
<title>SimpleFunctionComponent&#45;&gt;SimpleFunctionModule</title>
<path fill="none" stroke="#000000" d="M2160,-305.8533C2160,-292.2605 2160,-276 2160,-276 2160,-276 1173.7507,-276 1173.7507,-276 1173.7507,-276 1173.7507,-275.0207 1173.7507,-275.0207"/>
<polygon fill="#000000" stroke="#000000" points="1177.2508,-276.2069 1173.7507,-266.207 1170.2508,-276.207 1177.2508,-276.2069"/>
</g>
<!-- SimpleServiceComponent -->
<g id="node21" class="node">
<title>SimpleServiceComponent</title>
<polygon fill="#ffffb3" stroke="#000000" points="1643.479,-190 1480.521,-190 1480.521,-154 1643.479,-154 1643.479,-190"/>
<text text-anchor="middle" x="1562" y="-167.8" font-family="Times,serif" font-size="14.00" fill="#000000">SimpleServiceComponent</text>
</g>
<!-- SimpleServiceComponent&#45;&gt;SimpleServiceModule -->
<g id="edge23" class="edge">
<title>SimpleServiceComponent&#45;&gt;SimpleServiceModule</title>
<path fill="none" stroke="#000000" d="M1564.313,-190.0109C1564.313,-212.4852 1564.313,-248 1564.313,-248 1564.313,-248 1454.8655,-248 1454.8655,-248"/>
<polygon fill="#000000" stroke="#000000" points="1454.8656,-244.5001 1444.8655,-248 1454.8655,-251.5001 1454.8656,-244.5001"/>
</g>
<!-- SimpleService -->
<g id="node23" class="node">
<title>SimpleService</title>
<ellipse fill="#fdb462" stroke="#000000" cx="1200" cy="-172" rx="67.21" ry="18"/>
<text text-anchor="middle" x="1200" y="-167.8" font-family="Times,serif" font-size="14.00" fill="#000000">SimpleService</text>
</g>
<!-- SimpleService&#45;&gt;SimpleServiceModule -->
<g id="edge26" class="edge">
<title>SimpleService&#45;&gt;SimpleServiceModule</title>
<path fill="none" stroke="#000000" d="M1223.737,-188.9065C1223.737,-193.8724 1223.737,-198 1223.737,-198 1223.737,-198 1374,-198 1374,-198 1374,-198 1374,-219.9489 1374,-219.9489"/>
<polygon fill="#000000" stroke="#000000" points="1370.5001,-219.9488 1374,-229.9489 1377.5001,-219.9489 1370.5001,-219.9488"/>
</g>
</g>
</svg>
