<?xml version="1.0" encoding="UTF-8" standalone="no"?>
<!DOCTYPE svg PUBLIC "-//W3C//DTD SVG 1.1//EN"
 "http://www.w3.org/Graphics/SVG/1.1/DTD/svg11.dtd">
<!-- Generated by graphviz version 2.40.1 (20161225.0304)
 -->
<!-- Title: dependencies Pages: 1 -->
<svg width="1998pt" height="374pt"
 viewBox="0.00 0.00 1998.00 374.00" xmlns="http://www.w3.org/2000/svg" xmlns:xlink="http://www.w3.org/1999/xlink">
<g id="graph0" class="graph" transform="scale(1 1) rotate(0) translate(4 370)">
<title>dependencies</title>
<polygon fill="#ffffff" stroke="transparent" points="-4,4 -4,-370 1994,-370 1994,4 -4,4"/>
<text text-anchor="start" x="974.0091" y="-42.4" font-family="sans-serif" font-weight="bold" font-size="14.00" fill="#000000">Legend</text>
<polygon fill="#ffffb3" stroke="transparent" points="761,-10 761,-30 781,-30 781,-10 761,-10"/>
<text text-anchor="start" x="784.629" y="-15.4" font-family="sans-serif" font-size="14.00" fill="#000000"> &#160;Declarations</text>
<polygon fill="#8dd3c7" stroke="transparent" points="874,-10 874,-30 894,-30 894,-10 874,-10"/>
<text text-anchor="start" x="897.7251" y="-15.4" font-family="sans-serif" font-size="14.00" fill="#000000"> &#160;Module</text>
<polygon fill="#80b1d3" stroke="transparent" points="960,-10 960,-30 980,-30 980,-10 960,-10"/>
<text text-anchor="start" x="983.7812" y="-15.4" font-family="sans-serif" font-size="14.00" fill="#000000"> &#160;Bootstrap</text>
<polygon fill="#fdb462" stroke="transparent" points="1057,-10 1057,-30 1077,-30 1077,-10 1057,-10"/>
<text text-anchor="start" x="1080.6732" y="-15.4" font-family="sans-serif" font-size="14.00" fill="#000000"> &#160;Providers</text>
<polygon fill="#fb8072" stroke="transparent" points="1153,-10 1153,-30 1173,-30 1173,-10 1153,-10"/>
<text text-anchor="start" x="1176.7258" y="-15.4" font-family="sans-serif" font-size="14.00" fill="#000000"> &#160;Exports</text>
<g id="clust1" class="cluster">
<title>cluster_AppModule</title>
<polygon fill="none" stroke="#000000" stroke-dasharray="1,5" points="8,-70 8,-282 298,-282 298,-70 8,-70"/>
</g>
<g id="clust2" class="cluster">
<title>cluster_AppModule_declarations</title>
<polygon fill="none" stroke="#000000" points="168,-78 168,-130 290,-130 290,-78 168,-78"/>
</g>
<g id="clust4" class="cluster">
<title>cluster_AppModule_imports</title>
<polygon fill="none" stroke="#000000" points="16,-78 16,-130 160,-130 160,-78 16,-78"/>
</g>
<g id="clust6" class="cluster">
<title>cluster_AppModule_bootstrap</title>
<polygon fill="none" stroke="#000000" points="96,-222 96,-274 220,-274 220,-222 96,-222"/>
</g>
<g id="clust14" class="cluster">
<title>cluster_AutoCompleteModule</title>
<polygon fill="none" stroke="#000000" stroke-dasharray="1,5" points="306,-70 306,-282 464,-282 464,-70 306,-70"/>
</g>
<g id="clust15" class="cluster">
<title>cluster_AutoCompleteModule_declarations</title>
<polygon fill="none" stroke="#000000" points="338,-78 338,-130 432,-130 432,-78 338,-78"/>
</g>
<g id="clust18" class="cluster">
<title>cluster_AutoCompleteModule_exports</title>
<polygon fill="none" stroke="#000000" points="337,-222 337,-274 433,-274 433,-222 337,-222"/>
</g>
<g id="clust21" class="cluster">
<title>cluster_CountryPickerModule</title>
<polygon fill="none" stroke="#000000" stroke-dasharray="1,5" points="472,-138 472,-358 822,-358 822,-138 472,-138"/>
</g>
<g id="clust22" class="cluster">
<title>cluster_CountryPickerModule_declarations</title>
<polygon fill="none" stroke="#000000" points="480,-146 480,-198 658,-198 658,-146 480,-146"/>
</g>
<g id="clust25" class="cluster">
<title>cluster_CountryPickerModule_exports</title>
<polygon fill="none" stroke="#000000" points="556,-298 556,-350 738,-350 738,-298 556,-298"/>
</g>
<g id="clust27" class="cluster">
<title>cluster_CountryPickerModule_providers</title>
<polygon fill="none" stroke="#000000" points="666,-146 666,-198 814,-198 814,-146 666,-146"/>
</g>
<g id="clust28" class="cluster">
<title>cluster_HomePageModule</title>
<polygon fill="none" stroke="#000000" stroke-dasharray="1,5" points="830,-214 830,-350 1422,-350 1422,-214 830,-214"/>
</g>
<g id="clust29" class="cluster">
<title>cluster_HomePageModule_declarations</title>
<polygon fill="none" stroke="#000000" points="838,-222 838,-274 932,-274 932,-222 838,-222"/>
</g>
<g id="clust31" class="cluster">
<title>cluster_HomePageModule_imports</title>
<polygon fill="none" stroke="#000000" points="940,-222 940,-274 1414,-274 1414,-222 940,-222"/>
</g>
<g id="clust35" class="cluster">
<title>cluster_IngredientPickerModule</title>
<polygon fill="none" stroke="#000000" stroke-dasharray="1,5" points="830,-138 830,-206 1422,-206 1422,-138 830,-138"/>
</g>
<g id="clust36" class="cluster">
<title>cluster_IngredientPickerModule_declarations</title>
<polygon fill="none" stroke="#000000" points="1224,-146 1224,-198 1414,-198 1414,-146 1224,-146"/>
</g>
<g id="clust39" class="cluster">
<title>cluster_IngredientPickerModule_exports</title>
<polygon fill="none" stroke="#000000" points="1022,-146 1022,-198 1216,-198 1216,-146 1022,-146"/>
</g>
<g id="clust41" class="cluster">
<title>cluster_IngredientPickerModule_providers</title>
<polygon fill="none" stroke="#000000" points="838,-146 838,-198 1014,-198 1014,-146 838,-146"/>
</g>
<g id="clust42" class="cluster">
<title>cluster_SimpleServiceModule</title>
<polygon fill="none" stroke="#000000" stroke-dasharray="1,5" points="1430,-138 1430,-206 1982,-206 1982,-138 1430,-138"/>
</g>
<g id="clust43" class="cluster">
<title>cluster_SimpleServiceModule_declarations</title>
<polygon fill="none" stroke="#000000" points="1796,-146 1796,-198 1974,-198 1974,-146 1796,-146"/>
</g>
<g id="clust46" class="cluster">
<title>cluster_SimpleServiceModule_exports</title>
<polygon fill="none" stroke="#000000" points="1606,-146 1606,-198 1788,-198 1788,-146 1606,-146"/>
</g>
<g id="clust48" class="cluster">
<title>cluster_SimpleServiceModule_providers</title>
<polygon fill="none" stroke="#000000" points="1438,-146 1438,-198 1598,-198 1598,-146 1438,-146"/>
</g>
<g id="clust49" class="cluster">
<title>cluster_TeamPickerModule</title>
<polygon fill="none" stroke="#000000" stroke-dasharray="1,5" points="1430,-290 1430,-358 1786,-358 1786,-290 1430,-290"/>
</g>
<g id="clust50" class="cluster">
<title>cluster_TeamPickerModule_declarations</title>
<polygon fill="none" stroke="#000000" points="1614,-298 1614,-350 1778,-350 1778,-298 1614,-298"/>
</g>
<g id="clust53" class="cluster">
<title>cluster_TeamPickerModule_exports</title>
<polygon fill="none" stroke="#000000" points="1438,-298 1438,-350 1606,-350 1606,-298 1438,-298"/>
</g>
<!-- AppComponent -->
<g id="node1" class="node">
<title>AppComponent</title>
<polygon fill="#ffffb3" stroke="#000000" points="281.9399,-122 176.0601,-122 176.0601,-86 281.9399,-86 281.9399,-122"/>
<text text-anchor="middle" x="229" y="-99.8" font-family="Times,serif" font-size="14.00" fill="#000000">AppComponent</text>
</g>
<!-- AppModule -->
<g id="node2" class="node">
<title>AppModule</title>
<polygon fill="#8dd3c7" stroke="#000000" points="199.6571,-190 196.6571,-194 175.6571,-194 172.6571,-190 116.3429,-190 116.3429,-154 199.6571,-154 199.6571,-190"/>
<text text-anchor="middle" x="158" y="-167.8" font-family="Times,serif" font-size="14.00" fill="#000000">AppModule</text>
</g>
<!-- AppComponent&#45;&gt;AppModule -->
<g id="edge1" class="edge">
<title>AppComponent&#45;&gt;AppModule</title>
<path fill="none" stroke="#000000" d="M188.0544,-122.2228C188.0544,-122.2228 188.0544,-143.7269 188.0544,-143.7269"/>
<polygon fill="#000000" stroke="#000000" points="184.5544,-143.7269 188.0544,-153.7269 191.5544,-143.727 184.5544,-143.7269"/>
</g>
<!-- AppComponent  -->
<g id="node4" class="node">
<title>AppComponent </title>
<polygon fill="#80b1d3" stroke="#000000" points="212.439,-266 103.561,-266 103.561,-230 212.439,-230 212.439,-266"/>
<text text-anchor="middle" x="158" y="-243.8" font-family="Times,serif" font-size="14.00" fill="#000000">AppComponent </text>
</g>
<!-- AppModule&#45;&gt;AppComponent  -->
<g id="edge3" class="edge">
<title>AppModule&#45;&gt;AppComponent </title>
<path fill="none" stroke="#000000" stroke-dasharray="1,5" d="M158,-190.0109C158,-190.0109 158,-219.855 158,-219.855"/>
<polygon fill="#000000" stroke="#000000" points="154.5001,-219.8549 158,-229.855 161.5001,-219.855 154.5001,-219.8549"/>
</g>
<!-- AppRoutingModule -->
<g id="node3" class="node">
<title>AppRoutingModule</title>
<polygon fill="#8dd3c7" stroke="#000000" points="152.2744,-122 149.2744,-126 128.2744,-126 125.2744,-122 23.7256,-122 23.7256,-86 152.2744,-86 152.2744,-122"/>
<text text-anchor="middle" x="88" y="-99.8" font-family="Times,serif" font-size="14.00" fill="#000000">AppRoutingModule</text>
</g>
<!-- AppRoutingModule&#45;&gt;AppModule -->
<g id="edge2" class="edge">
<title>AppRoutingModule&#45;&gt;AppModule</title>
<path fill="none" stroke="#000000" d="M134.2795,-122.2228C134.2795,-122.2228 134.2795,-143.7269 134.2795,-143.7269"/>
<polygon fill="#000000" stroke="#000000" points="130.7795,-143.7269 134.2795,-153.7269 137.7795,-143.727 130.7795,-143.7269"/>
</g>
<!-- BoldPrefix -->
<g id="node5" class="node">
<title>BoldPrefix</title>
<polygon fill="#ffffb3" stroke="#000000" points="423.9374,-122 346.0626,-122 346.0626,-86 423.9374,-86 423.9374,-122"/>
<text text-anchor="middle" x="385" y="-99.8" font-family="Times,serif" font-size="14.00" fill="#000000">BoldPrefix</text>
</g>
<!-- AutoCompleteModule -->
<g id="node6" class="node">
<title>AutoCompleteModule</title>
<polygon fill="#8dd3c7" stroke="#000000" points="455.9846,-190 452.9846,-194 431.9846,-194 428.9846,-190 314.0154,-190 314.0154,-154 455.9846,-154 455.9846,-190"/>
<text text-anchor="middle" x="385" y="-167.8" font-family="Times,serif" font-size="14.00" fill="#000000">AutoCompleteModule</text>
</g>
<!-- BoldPrefix&#45;&gt;AutoCompleteModule -->
<g id="edge4" class="edge">
<title>BoldPrefix&#45;&gt;AutoCompleteModule</title>
<path fill="none" stroke="#000000" d="M385,-122.2228C385,-122.2228 385,-143.7269 385,-143.7269"/>
<polygon fill="#000000" stroke="#000000" points="381.5001,-143.7269 385,-153.7269 388.5001,-143.727 381.5001,-143.7269"/>
</g>
<!-- BoldPrefix  -->
<g id="node7" class="node">
<title>BoldPrefix </title>
<polygon fill="#fb8072" stroke="#000000" points="425.4362,-266 344.5638,-266 344.5638,-230 425.4362,-230 425.4362,-266"/>
<text text-anchor="middle" x="385" y="-243.8" font-family="Times,serif" font-size="14.00" fill="#000000">BoldPrefix </text>
</g>
<!-- AutoCompleteModule&#45;&gt;BoldPrefix  -->
<g id="edge5" class="edge">
<title>AutoCompleteModule&#45;&gt;BoldPrefix </title>
<path fill="none" stroke="#000000" stroke-dasharray="5,2" d="M385,-190.0109C385,-190.0109 385,-219.855 385,-219.855"/>
<polygon fill="#000000" stroke="#000000" points="381.5001,-219.8549 385,-229.855 388.5001,-219.855 381.5001,-219.8549"/>
</g>
<!-- CountryPickerModule -->
<g id="node9" class="node">
<title>CountryPickerModule</title>
<polygon fill="#8dd3c7" stroke="#000000" points="717.7007,-266 714.7007,-270 693.7007,-270 690.7007,-266 576.2993,-266 576.2993,-230 717.7007,-230 717.7007,-266"/>
<text text-anchor="middle" x="647" y="-243.8" font-family="Times,serif" font-size="14.00" fill="#000000">CountryPickerModule</text>
</g>
<!-- AutoCompleteModule&#45;&gt;CountryPickerModule -->
<g id="edge7" class="edge">
<title>AutoCompleteModule&#45;&gt;CountryPickerModule</title>
<path fill="none" stroke="#000000" d="M449.8875,-190.0109C449.8875,-212.4852 449.8875,-248 449.8875,-248 449.8875,-248 566.3946,-248 566.3946,-248"/>
<polygon fill="#000000" stroke="#000000" points="566.3946,-251.5001 576.3946,-248 566.3946,-244.5001 566.3946,-251.5001"/>
</g>
<!-- IngredientPickerModule -->
<g id="node14" class="node">
<title>IngredientPickerModule</title>
<polygon fill="#8dd3c7" stroke="#000000" points="1246.3445,-266 1243.3445,-270 1222.3445,-270 1219.3445,-266 1093.6555,-266 1093.6555,-230 1246.3445,-230 1246.3445,-266"/>
<text text-anchor="middle" x="1170" y="-243.8" font-family="Times,serif" font-size="14.00" fill="#000000">IngredientPickerModule</text>
</g>
<!-- AutoCompleteModule&#45;&gt;IngredientPickerModule -->
<g id="edge16" class="edge">
<title>AutoCompleteModule&#45;&gt;IngredientPickerModule</title>
<path fill="none" stroke="#000000" d="M437.6778,-190.1097C437.6778,-199.897 437.6778,-210 437.6778,-210 437.6778,-210 1122.1992,-210 1122.1992,-210 1122.1992,-210 1122.1992,-219.8903 1122.1992,-219.8903"/>
<polygon fill="#000000" stroke="#000000" points="1118.6993,-219.8903 1122.1992,-229.8903 1125.6993,-219.8904 1118.6993,-219.8903"/>
</g>
<!-- SimpleServiceModule -->
<g id="node15" class="node">
<title>SimpleServiceModule</title>
<polygon fill="#8dd3c7" stroke="#000000" points="1405.6965,-266 1402.6965,-270 1381.6965,-270 1378.6965,-266 1264.3035,-266 1264.3035,-230 1405.6965,-230 1405.6965,-266"/>
<text text-anchor="middle" x="1335" y="-243.8" font-family="Times,serif" font-size="14.00" fill="#000000">SimpleServiceModule</text>
</g>
<!-- AutoCompleteModule&#45;&gt;SimpleServiceModule -->
<g id="edge20" class="edge">
<title>AutoCompleteModule&#45;&gt;SimpleServiceModule</title>
<path fill="none" stroke="#000000" d="M443.7826,-190.1686C443.7826,-194.0459 443.7826,-197 443.7826,-197 443.7826,-197 1335,-197 1335,-197 1335,-197 1335,-219.8757 1335,-219.8757"/>
<polygon fill="#000000" stroke="#000000" points="1331.5001,-219.8757 1335,-229.8757 1338.5001,-219.8757 1331.5001,-219.8757"/>
</g>
<!-- TeamPickerModule -->
<g id="node16" class="node">
<title>TeamPickerModule</title>
<polygon fill="#8dd3c7" stroke="#000000" points="1075.6853,-266 1072.6853,-270 1051.6853,-270 1048.6853,-266 948.3147,-266 948.3147,-230 1075.6853,-230 1075.6853,-266"/>
<text text-anchor="middle" x="1012" y="-243.8" font-family="Times,serif" font-size="14.00" fill="#000000">TeamPickerModule</text>
</g>
<!-- AutoCompleteModule&#45;&gt;TeamPickerModule -->
<g id="edge24" class="edge">
<title>AutoCompleteModule&#45;&gt;TeamPickerModule</title>
<path fill="none" stroke="#000000" d="M431.5729,-190.1871C431.5729,-205.1824 431.5729,-224 431.5729,-224 431.5729,-224 962.7246,-224 962.7246,-224 962.7246,-224 962.7246,-224.581 962.7246,-224.581"/>
<polygon fill="#000000" stroke="#000000" points="959.2248,-219.8097 962.7246,-229.8097 966.2248,-219.8098 959.2248,-219.8097"/>
</g>
<!-- CountryPickerComponent -->
<g id="node8" class="node">
<title>CountryPickerComponent</title>
<polygon fill="#ffffb3" stroke="#000000" points="650.4832,-190 487.5168,-190 487.5168,-154 650.4832,-154 650.4832,-190"/>
<text text-anchor="middle" x="569" y="-167.8" font-family="Times,serif" font-size="14.00" fill="#000000">CountryPickerComponent</text>
</g>
<!-- CountryPickerComponent&#45;&gt;CountryPickerModule -->
<g id="edge6" class="edge">
<title>CountryPickerComponent&#45;&gt;CountryPickerModule</title>
<path fill="none" stroke="#000000" d="M613.4457,-190.0109C613.4457,-190.0109 613.4457,-219.855 613.4457,-219.855"/>
<polygon fill="#000000" stroke="#000000" points="609.9457,-219.8549 613.4457,-229.855 616.9457,-219.855 609.9457,-219.8549"/>
</g>
<!-- CountryPickerComponent  -->
<g id="node10" class="node">
<title>CountryPickerComponent </title>
<polygon fill="#fb8072" stroke="#000000" points="730.4839,-342 563.5161,-342 563.5161,-306 730.4839,-306 730.4839,-342"/>
<text text-anchor="middle" x="647" y="-319.8" font-family="Times,serif" font-size="14.00" fill="#000000">CountryPickerComponent </text>
</g>
<!-- CountryPickerModule&#45;&gt;CountryPickerComponent  -->
<g id="edge8" class="edge">
<title>CountryPickerModule&#45;&gt;CountryPickerComponent </title>
<path fill="none" stroke="#000000" stroke-dasharray="5,2" d="M647,-266.0109C647,-266.0109 647,-295.855 647,-295.855"/>
<polygon fill="#000000" stroke="#000000" points="643.5001,-295.8549 647,-305.855 650.5001,-295.855 643.5001,-295.8549"/>
</g>
<!-- HomePageModule -->
<g id="node13" class="node">
<title>HomePageModule</title>
<polygon fill="#8dd3c7" stroke="#000000" points="1072.4734,-342 1069.4734,-346 1048.4734,-346 1045.4734,-342 951.5266,-342 951.5266,-306 1072.4734,-306 1072.4734,-342"/>
<text text-anchor="middle" x="1012" y="-319.8" font-family="Times,serif" font-size="14.00" fill="#000000">HomePageModule</text>
</g>
<!-- CountryPickerModule&#45;&gt;HomePageModule -->
<g id="edge11" class="edge">
<title>CountryPickerModule&#45;&gt;HomePageModule</title>
<path fill="none" stroke="#000000" d="M717.6078,-248C738.3475,-248 755.5858,-248 755.5858,-248 755.5858,-248 755.5858,-330 755.5858,-330 755.5858,-330 941.2334,-330 941.2334,-330"/>
<polygon fill="#000000" stroke="#000000" points="941.2335,-333.5001 951.2334,-330 941.2334,-326.5001 941.2335,-333.5001"/>
</g>
<!-- PeopleService -->
<g id="node11" class="node">
<title>PeopleService</title>
<ellipse fill="#fdb462" stroke="#000000" cx="740" cy="-172" rx="66.0492" ry="18"/>
<text text-anchor="middle" x="740" y="-167.8" font-family="Times,serif" font-size="14.00" fill="#000000">PeopleService</text>
</g>
<!-- PeopleService&#45;&gt;CountryPickerModule -->
<g id="edge9" class="edge">
<title>PeopleService&#45;&gt;CountryPickerModule</title>
<path fill="none" stroke="#000000" d="M695.663,-185.5873C695.663,-185.5873 695.663,-219.9574 695.663,-219.9574"/>
<polygon fill="#000000" stroke="#000000" points="692.1631,-219.9574 695.663,-229.9574 699.1631,-219.9575 692.1631,-219.9574"/>
</g>
<!-- PeopleService&#45;&gt;TeamPickerModule -->
<g id="edge26" class="edge">
<title>PeopleService&#45;&gt;TeamPickerModule</title>
<path fill="none" stroke="#000000" d="M780.93,-186.2383C780.93,-199.4219 780.93,-217 780.93,-217 780.93,-217 977.0418,-217 977.0418,-217 977.0418,-217 977.0418,-219.9672 977.0418,-219.9672"/>
<polygon fill="#000000" stroke="#000000" points="973.5419,-219.9671 977.0418,-229.9672 980.5419,-219.9672 973.5419,-219.9671"/>
</g>
<!-- HomePage -->
<g id="node12" class="node">
<title>HomePage</title>
<polygon fill="#ffffb3" stroke="#000000" points="923.9248,-266 846.0752,-266 846.0752,-230 923.9248,-230 923.9248,-266"/>
<text text-anchor="middle" x="885" y="-243.8" font-family="Times,serif" font-size="14.00" fill="#000000">HomePage</text>
</g>
<!-- HomePage&#45;&gt;HomePageModule -->
<g id="edge10" class="edge">
<title>HomePage&#45;&gt;HomePageModule</title>
<path fill="none" stroke="#000000" d="M885,-266.0267C885,-286.7672 885,-318 885,-318 885,-318 941.4756,-318 941.4756,-318"/>
<polygon fill="#000000" stroke="#000000" points="941.4756,-321.5001 951.4756,-318 941.4756,-314.5001 941.4756,-321.5001"/>
</g>
<!-- IngredientPickerModule&#45;&gt;HomePageModule -->
<g id="edge12" class="edge">
<title>IngredientPickerModule&#45;&gt;HomePageModule</title>
<path fill="none" stroke="#000000" d="M1170,-266.0109C1170,-288.4852 1170,-324 1170,-324 1170,-324 1082.6351,-324 1082.6351,-324"/>
<polygon fill="#000000" stroke="#000000" points="1082.6351,-320.5001 1072.6351,-324 1082.635,-327.5001 1082.6351,-320.5001"/>
</g>
<!-- IngredientPickerComponent  -->
<g id="node18" class="node">
<title>IngredientPickerComponent </title>
<polygon fill="#fb8072" stroke="#000000" points="1208.127,-190 1029.873,-190 1029.873,-154 1208.127,-154 1208.127,-190"/>
<text text-anchor="middle" x="1119" y="-167.8" font-family="Times,serif" font-size="14.00" fill="#000000">IngredientPickerComponent </text>
</g>
<!-- IngredientPickerModule&#45;&gt;IngredientPickerComponent  -->
<g id="edge17" class="edge">
<title>IngredientPickerModule&#45;&gt;IngredientPickerComponent </title>
<path fill="none" stroke="#000000" stroke-dasharray="5,2" d="M1179.4421,-229.9891C1179.4421,-229.9891 1179.4421,-200.145 1179.4421,-200.145"/>
<polygon fill="#000000" stroke="#000000" points="1182.9422,-200.145 1179.4421,-190.145 1175.9422,-200.1451 1182.9422,-200.145"/>
</g>
<!-- SimpleServiceModule&#45;&gt;HomePageModule -->
<g id="edge13" class="edge">
<title>SimpleServiceModule&#45;&gt;HomePageModule</title>
<path fill="none" stroke="#000000" d="M1335,-266.0263C1335,-290.9773 1335,-333 1335,-333 1335,-333 1082.7538,-333 1082.7538,-333"/>
<polygon fill="#000000" stroke="#000000" points="1082.7539,-329.5001 1072.7538,-333 1082.7538,-336.5001 1082.7539,-329.5001"/>
</g>
<!-- SimpleServiceComponent  -->
<g id="node21" class="node">
<title>SimpleServiceComponent </title>
<polygon fill="#fb8072" stroke="#000000" points="1780.4797,-190 1613.5203,-190 1613.5203,-154 1780.4797,-154 1780.4797,-190"/>
<text text-anchor="middle" x="1697" y="-167.8" font-family="Times,serif" font-size="14.00" fill="#000000">SimpleServiceComponent </text>
</g>
<!-- SimpleServiceModule&#45;&gt;SimpleServiceComponent  -->
<g id="edge21" class="edge">
<title>SimpleServiceModule&#45;&gt;SimpleServiceComponent </title>
<path fill="none" stroke="#000000" stroke-dasharray="5,2" d="M1405.9568,-248C1489.6797,-248 1617.6383,-248 1617.6383,-248 1617.6383,-248 1617.6383,-200.0109 1617.6383,-200.0109"/>
<polygon fill="#000000" stroke="#000000" points="1621.1384,-200.0109 1617.6383,-190.0109 1614.1384,-200.011 1621.1384,-200.0109"/>
</g>
<!-- TeamPickerModule&#45;&gt;HomePageModule -->
<g id="edge14" class="edge">
<title>TeamPickerModule&#45;&gt;HomePageModule</title>
<path fill="none" stroke="#000000" d="M991.8378,-266.0109C991.8378,-266.0109 991.8378,-295.855 991.8378,-295.855"/>
<polygon fill="#000000" stroke="#000000" points="988.3379,-295.8549 991.8378,-305.855 995.3379,-295.855 988.3379,-295.8549"/>
</g>
<!-- TeamPickerComponent  -->
<g id="node24" class="node">
<title>TeamPickerComponent </title>
<polygon fill="#fb8072" stroke="#000000" points="1598.4685,-342 1445.5315,-342 1445.5315,-306 1598.4685,-306 1598.4685,-342"/>
<text text-anchor="middle" x="1522" y="-319.8" font-family="Times,serif" font-size="14.00" fill="#000000">TeamPickerComponent </text>
</g>
<!-- TeamPickerModule&#45;&gt;TeamPickerComponent  -->
<g id="edge25" class="edge">
<title>TeamPickerModule&#45;&gt;TeamPickerComponent </title>
<path fill="none" stroke="#000000" stroke-dasharray="5,2" d="M1075.6848,-248C1081.1119,-248 1084.5852,-248 1084.5852,-248 1084.5852,-248 1084.5852,-315 1084.5852,-315 1084.5852,-315 1435.558,-315 1435.558,-315"/>
<polygon fill="#000000" stroke="#000000" points="1435.5581,-318.5001 1445.558,-315 1435.558,-311.5001 1435.5581,-318.5001"/>
</g>
<!-- IngredientPickerComponent -->
<g id="node17" class="node">
<title>IngredientPickerComponent</title>
<polygon fill="#ffffb3" stroke="#000000" points="1406.1274,-190 1231.8726,-190 1231.8726,-154 1406.1274,-154 1406.1274,-190"/>
<text text-anchor="middle" x="1319" y="-167.8" font-family="Times,serif" font-size="14.00" fill="#000000">IngredientPickerComponent</text>
</g>
<!-- IngredientPickerComponent&#45;&gt;IngredientPickerModule -->
<g id="edge15" class="edge">
<title>IngredientPickerComponent&#45;&gt;IngredientPickerModule</title>
<path fill="none" stroke="#000000" d="M1239.0543,-190.0109C1239.0543,-190.0109 1239.0543,-219.855 1239.0543,-219.855"/>
<polygon fill="#000000" stroke="#000000" points="1235.5544,-219.8549 1239.0543,-229.855 1242.5544,-219.855 1235.5544,-219.8549"/>
</g>
<!-- IngredientService -->
<g id="node19" class="node">
<title>IngredientService</title>
<ellipse fill="#fdb462" stroke="#000000" cx="926" cy="-172" rx="79.8527" ry="18"/>
<text text-anchor="middle" x="926" y="-167.8" font-family="Times,serif" font-size="14.00" fill="#000000">IngredientService</text>
</g>
<!-- IngredientService&#45;&gt;IngredientPickerModule -->
<g id="edge18" class="edge">
<title>IngredientService&#45;&gt;IngredientPickerModule</title>
<path fill="none" stroke="#000000" d="M991.359,-182.478C991.359,-191.8105 991.359,-204 991.359,-204 991.359,-204 1150.8207,-204 1150.8207,-204 1150.8207,-204 1150.8207,-219.8495 1150.8207,-219.8495"/>
<polygon fill="#000000" stroke="#000000" points="1147.3207,-219.8494 1150.8207,-229.8495 1154.3207,-219.8495 1147.3207,-219.8494"/>
</g>
<!-- SimpleServiceComponent -->
<g id="node20" class="node">
<title>SimpleServiceComponent</title>
<polygon fill="#ffffb3" stroke="#000000" points="1966.479,-190 1803.521,-190 1803.521,-154 1966.479,-154 1966.479,-190"/>
<text text-anchor="middle" x="1885" y="-167.8" font-family="Times,serif" font-size="14.00" fill="#000000">SimpleServiceComponent</text>
</g>
<!-- SimpleServiceComponent&#45;&gt;SimpleServiceModule -->
<g id="edge19" class="edge">
<title>SimpleServiceComponent&#45;&gt;SimpleServiceModule</title>
<path fill="none" stroke="#000000" d="M1885,-190.0263C1885,-214.9773 1885,-257 1885,-257 1885,-257 1415.7769,-257 1415.7769,-257"/>
<polygon fill="#000000" stroke="#000000" points="1415.777,-253.5001 1405.7769,-257 1415.7769,-260.5001 1415.777,-253.5001"/>
</g>
<!-- CountryService -->
<g id="node22" class="node">
<title>CountryService</title>
<ellipse fill="#fdb462" stroke="#000000" cx="1518" cy="-172" rx="71.7892" ry="18"/>
<text text-anchor="middle" x="1518" y="-167.8" font-family="Times,serif" font-size="14.00" fill="#000000">CountryService</text>
</g>
<!-- CountryService&#45;&gt;SimpleServiceModule -->
<g id="edge22" class="edge">
<title>CountryService&#45;&gt;SimpleServiceModule</title>
<path fill="none" stroke="#000000" d="M1518,-190.308C1518,-210.1455 1518,-239 1518,-239 1518,-239 1415.7526,-239 1415.7526,-239"/>
<polygon fill="#000000" stroke="#000000" points="1415.7526,-235.5001 1405.7526,-239 1415.7525,-242.5001 1415.7526,-235.5001"/>
</g>
<!-- TeamPickerComponent -->
<g id="node23" class="node">
<title>TeamPickerComponent</title>
<polygon fill="#ffffb3" stroke="#000000" points="1770.4678,-342 1621.5322,-342 1621.5322,-306 1770.4678,-306 1770.4678,-342"/>
<text text-anchor="middle" x="1696" y="-319.8" font-family="Times,serif" font-size="14.00" fill="#000000">TeamPickerComponent</text>
</g>
<!-- TeamPickerComponent&#45;&gt;TeamPickerModule -->
<g id="edge23" class="edge">
<title>TeamPickerComponent&#45;&gt;TeamPickerModule</title>
<path fill="none" stroke="#000000" d="M1696,-305.8903C1696,-296.103 1696,-286 1696,-286 1696,-286 1032.1622,-286 1032.1622,-286 1032.1622,-286 1032.1622,-276.1097 1032.1622,-276.1097"/>
<polygon fill="#000000" stroke="#000000" points="1035.6623,-276.1096 1032.1622,-266.1097 1028.6623,-276.1097 1035.6623,-276.1096"/>
</g>
</g>
</svg>
