<?xml version="1.0" encoding="UTF-8" standalone="no"?>
<!DOCTYPE svg PUBLIC "-//W3C//DTD SVG 1.1//EN"
 "http://www.w3.org/Graphics/SVG/1.1/DTD/svg11.dtd">
<!-- Generated by graphviz version 2.47.3 (20210619.1520)
 -->
<!-- Title: dependencies Pages: 1 -->
<svg width="775pt" height="174pt"
 viewBox="0.00 0.00 775.00 173.80" xmlns="http://www.w3.org/2000/svg" xmlns:xlink="http://www.w3.org/1999/xlink">
<g id="graph0" class="graph" transform="scale(1 1) rotate(0) translate(4 169.8)">
<title>dependencies</title>
<polygon fill="white" stroke="transparent" points="-4,4 -4,-169.8 771,-169.8 771,4 -4,4"/>
<text text-anchor="middle" x="383.5" y="-8.2" font-family="sans-serif" font-size="14.00">dependencies</text>
<g id="clust1" class="cluster">
<title>cluster_HomePageModule</title>
<polygon fill="none" stroke="black" stroke-dasharray="1,5" points="8,-32.8 8,-157.8 759,-157.8 759,-32.8 8,-32.8"/>
</g>
<g id="clust2" class="cluster">
<title>cluster_HomePageModule_declarations</title>
<polygon fill="none" stroke="black" points="657,-40.8 657,-92.8 751,-92.8 751,-40.8 657,-40.8"/>
</g>
<g id="clust4" class="cluster">
<title>cluster_HomePageModule_imports</title>
<polygon fill="none" stroke="black" points="16,-40.8 16,-92.8 649,-92.8 649,-40.8 16,-40.8"/>
</g>
<!-- HomePage -->
<g id="node1" class="node">
<title>HomePage</title>
<polygon fill="#ffffb3" stroke="black" points="742.92,-84.8 665.08,-84.8 665.08,-48.8 742.92,-48.8 742.92,-84.8"/>
<text text-anchor="middle" x="704" y="-62.6" font-family="Times,serif" font-size="14.00">HomePage</text>
</g>
<!-- HomePageModule -->
<g id="node2" class="node">
<title>HomePageModule</title>
<polygon fill="#8dd3c7" stroke="black" points="465.47,-149.8 462.47,-153.8 441.47,-153.8 438.47,-149.8 344.53,-149.8 344.53,-113.8 465.47,-113.8 465.47,-149.8"/>
<text text-anchor="middle" x="405" y="-127.6" font-family="Times,serif" font-size="14.00">HomePageModule</text>
</g>
<!-- HomePage&#45;&gt;HomePageModule -->
<g id="edge1" class="edge">
<title>HomePage&#45;&gt;HomePageModule</title>
<path fill="none" stroke="black" d="M704,-85.08C704,-106.12 704,-137.8 704,-137.8 704,-137.8 475.51,-137.8 475.51,-137.8"/>
<polygon fill="black" stroke="black" points="475.51,-134.3 465.51,-137.8 475.51,-141.3 475.51,-134.3"/>
</g>
<!-- CountryPickerModule -->
<g id="node3" class="node">
<title>CountryPickerModule</title>
<polygon fill="#8dd3c7" stroke="black" points="640.7,-84.8 637.7,-88.8 616.7,-88.8 613.7,-84.8 499.3,-84.8 499.3,-48.8 640.7,-48.8 640.7,-84.8"/>
<text text-anchor="middle" x="570" y="-62.6" font-family="Times,serif" font-size="14.00">CountryPickerModule</text>
</g>
<!-- CountryPickerModule&#45;&gt;HomePageModule -->
<g id="edge2" class="edge">
<title>CountryPickerModule&#45;&gt;HomePageModule</title>
<path fill="none" stroke="black" d="M570,-84.82C570,-102.17 570,-125.8 570,-125.8 570,-125.8 475.5,-125.8 475.5,-125.8"/>
<polygon fill="black" stroke="black" points="475.5,-122.3 465.5,-125.8 475.5,-129.3 475.5,-122.3"/>
</g>
<!-- IngredientPickerModule -->
<g id="node4" class="node">
<title>IngredientPickerModule</title>
<polygon fill="#8dd3c7" stroke="black" points="481.34,-84.8 478.34,-88.8 457.34,-88.8 454.34,-84.8 328.66,-84.8 328.66,-48.8 481.34,-48.8 481.34,-84.8"/>
<text text-anchor="middle" x="405" y="-62.6" font-family="Times,serif" font-size="14.00">IngredientPickerModule</text>
</g>
<!-- IngredientPickerModule&#45;&gt;HomePageModule -->
<g id="edge3" class="edge">
<title>IngredientPickerModule&#45;&gt;HomePageModule</title>
<path fill="none" stroke="black" d="M405,-84.91C405,-84.91 405,-103.79 405,-103.79"/>
<polygon fill="black" stroke="black" points="401.5,-103.79 405,-113.79 408.5,-103.79 401.5,-103.79"/>
</g>
<!-- SimpleServiceModule -->
<g id="node5" class="node">
<title>SimpleServiceModule</title>
<polygon fill="#8dd3c7" stroke="black" points="310.7,-84.8 307.7,-88.8 286.7,-88.8 283.7,-84.8 169.3,-84.8 169.3,-48.8 310.7,-48.8 310.7,-84.8"/>
<text text-anchor="middle" x="240" y="-62.6" font-family="Times,serif" font-size="14.00">SimpleServiceModule</text>
</g>
<!-- SimpleServiceModule&#45;&gt;HomePageModule -->
<g id="edge4" class="edge">
<title>SimpleServiceModule&#45;&gt;HomePageModule</title>
<path fill="none" stroke="black" d="M240,-84.82C240,-102.17 240,-125.8 240,-125.8 240,-125.8 334.5,-125.8 334.5,-125.8"/>
<polygon fill="black" stroke="black" points="334.5,-129.3 344.5,-125.8 334.5,-122.3 334.5,-129.3"/>
</g>
<!-- TeamPickerModule -->
<g id="node6" class="node">
<title>TeamPickerModule</title>
<polygon fill="#8dd3c7" stroke="black" points="151.69,-84.8 148.69,-88.8 127.69,-88.8 124.69,-84.8 24.31,-84.8 24.31,-48.8 151.69,-48.8 151.69,-84.8"/>
<text text-anchor="middle" x="88" y="-62.6" font-family="Times,serif" font-size="14.00">TeamPickerModule</text>
</g>
<!-- TeamPickerModule&#45;&gt;HomePageModule -->
<g id="edge5" class="edge">
<title>TeamPickerModule&#45;&gt;HomePageModule</title>
<path fill="none" stroke="black" d="M88,-85.08C88,-106.12 88,-137.8 88,-137.8 88,-137.8 334.25,-137.8 334.25,-137.8"/>
<polygon fill="black" stroke="black" points="334.25,-141.3 344.25,-137.8 334.25,-134.3 334.25,-141.3"/>
</g>
</g>
</svg>
