<?xml version="1.0" encoding="UTF-8" standalone="no"?>
<!DOCTYPE svg PUBLIC "-//W3C//DTD SVG 1.1//EN"
 "http://www.w3.org/Graphics/SVG/1.1/DTD/svg11.dtd">
<!-- Generated by graphviz version 2.40.1 (20161225.0304)
 -->
<!-- Title: dependencies Pages: 1 -->
<svg width="540pt" height="284pt"
 viewBox="0.00 0.00 540.00 284.00" xmlns="http://www.w3.org/2000/svg" xmlns:xlink="http://www.w3.org/1999/xlink">
<g id="graph0" class="graph" transform="scale(1 1) rotate(0) translate(4 280)">
<title>dependencies</title>
<polygon fill="#ffffff" stroke="transparent" points="-4,4 -4,-280 536,-280 536,4 -4,4"/>
<text text-anchor="start" x="245.0091" y="-42.4" font-family="sans-serif" font-weight="bold" font-size="14.00" fill="#000000">Legend</text>
<polygon fill="#ffffb3" stroke="transparent" points="32,-10 32,-30 52,-30 52,-10 32,-10"/>
<text text-anchor="start" x="55.629" y="-15.4" font-family="sans-serif" font-size="14.00" fill="#000000"> &#160;Declarations</text>
<polygon fill="#8dd3c7" stroke="transparent" points="145,-10 145,-30 165,-30 165,-10 145,-10"/>
<text text-anchor="start" x="168.7251" y="-15.4" font-family="sans-serif" font-size="14.00" fill="#000000"> &#160;Module</text>
<polygon fill="#80b1d3" stroke="transparent" points="231,-10 231,-30 251,-30 251,-10 231,-10"/>
<text text-anchor="start" x="254.7812" y="-15.4" font-family="sans-serif" font-size="14.00" fill="#000000"> &#160;Bootstrap</text>
<polygon fill="#fdb462" stroke="transparent" points="328,-10 328,-30 348,-30 348,-10 328,-10"/>
<text text-anchor="start" x="351.6732" y="-15.4" font-family="sans-serif" font-size="14.00" fill="#000000"> &#160;Providers</text>
<polygon fill="#fb8072" stroke="transparent" points="424,-10 424,-30 444,-30 444,-10 424,-10"/>
<text text-anchor="start" x="447.7258" y="-15.4" font-family="sans-serif" font-size="14.00" fill="#000000"> &#160;Exports</text>
<g id="clust1" class="cluster">
<title>cluster_CountryPickerModule</title>
<polygon fill="none" stroke="#000000" stroke-dasharray="1,5" points="8,-70 8,-268 524,-268 524,-70 8,-70"/>
</g>
<g id="clust2" class="cluster">
<title>cluster_CountryPickerModule_declarations</title>
<polygon fill="none" stroke="#000000" points="338,-78 338,-130 516,-130 516,-78 338,-78"/>
</g>
<g id="clust4" class="cluster">
<title>cluster_CountryPickerModule_imports</title>
<polygon fill="none" stroke="#000000" points="172,-78 172,-130 330,-130 330,-78 172,-78"/>
</g>
<g id="clust5" class="cluster">
<title>cluster_CountryPickerModule_exports</title>
<polygon fill="none" stroke="#000000" points="160,-208 160,-260 342,-260 342,-208 160,-208"/>
</g>
<g id="clust7" class="cluster">
<title>cluster_CountryPickerModule_providers</title>
<polygon fill="none" stroke="#000000" points="16,-78 16,-130 164,-130 164,-78 16,-78"/>
</g>
<!-- CountryPickerComponent -->
<g id="node1" class="node">
<title>CountryPickerComponent</title>
<polygon fill="#ffffb3" stroke="#000000" points="508.4832,-122 345.5168,-122 345.5168,-86 508.4832,-86 508.4832,-122"/>
<text text-anchor="middle" x="427" y="-99.8" font-family="Times,serif" font-size="14.00" fill="#000000">CountryPickerComponent</text>
</g>
<!-- CountryPickerModule -->
<g id="node2" class="node">
<title>CountryPickerModule</title>
<polygon fill="#8dd3c7" stroke="#000000" points="321.7007,-187 318.7007,-191 297.7007,-191 294.7007,-187 180.2993,-187 180.2993,-151 321.7007,-151 321.7007,-187"/>
<text text-anchor="middle" x="251" y="-164.8" font-family="Times,serif" font-size="14.00" fill="#000000">CountryPickerModule</text>
</g>
<!-- CountryPickerComponent&#45;&gt;CountryPickerModule -->
<g id="edge1" class="edge">
<title>CountryPickerComponent&#45;&gt;CountryPickerModule</title>
<path fill="none" stroke="#000000" d="M427,-122.1061C427,-141.3391 427,-169 427,-169 427,-169 331.8252,-169 331.8252,-169"/>
<polygon fill="#000000" stroke="#000000" points="331.8252,-165.5001 321.8252,-169 331.8251,-172.5001 331.8252,-165.5001"/>
</g>
<!-- CountryPickerComponent  -->
<g id="node4" class="node">
<title>CountryPickerComponent </title>
<polygon fill="#fb8072" stroke="#000000" points="334.4839,-252 167.5161,-252 167.5161,-216 334.4839,-216 334.4839,-252"/>
<text text-anchor="middle" x="251" y="-229.8" font-family="Times,serif" font-size="14.00" fill="#000000">CountryPickerComponent </text>
</g>
<!-- CountryPickerModule&#45;&gt;CountryPickerComponent  -->
<g id="edge3" class="edge">
<title>CountryPickerModule&#45;&gt;CountryPickerComponent </title>
<path fill="none" stroke="#000000" stroke-dasharray="5,2" d="M251,-187.1061C251,-187.1061 251,-205.991 251,-205.991"/>
<polygon fill="#000000" stroke="#000000" points="247.5001,-205.9909 251,-215.991 254.5001,-205.991 247.5001,-205.9909"/>
</g>
<!-- AutoCompleteModule -->
<g id="node3" class="node">
<title>AutoCompleteModule</title>
<polygon fill="#8dd3c7" stroke="#000000" points="321.9846,-122 318.9846,-126 297.9846,-126 294.9846,-122 180.0154,-122 180.0154,-86 321.9846,-86 321.9846,-122"/>
<text text-anchor="middle" x="251" y="-99.8" font-family="Times,serif" font-size="14.00" fill="#000000">AutoCompleteModule</text>
</g>
<!-- AutoCompleteModule&#45;&gt;CountryPickerModule -->
<g id="edge2" class="edge">
<title>AutoCompleteModule&#45;&gt;CountryPickerModule</title>
<path fill="none" stroke="#000000" d="M251,-122.1061C251,-122.1061 251,-140.991 251,-140.991"/>
<polygon fill="#000000" stroke="#000000" points="247.5001,-140.9909 251,-150.991 254.5001,-140.991 247.5001,-140.9909"/>
</g>
<!-- PeopleService -->
<g id="node5" class="node">
<title>PeopleService</title>
<ellipse fill="#fdb462" stroke="#000000" cx="90" cy="-104" rx="66.0492" ry="18"/>
<text text-anchor="middle" x="90" y="-99.8" font-family="Times,serif" font-size="14.00" fill="#000000">PeopleService</text>
</g>
<!-- PeopleService&#45;&gt;CountryPickerModule -->
<g id="edge4" class="edge">
<title>PeopleService&#45;&gt;CountryPickerModule</title>
<path fill="none" stroke="#000000" d="M90,-122.1061C90,-141.3391 90,-169 90,-169 90,-169 170.3831,-169 170.3831,-169"/>
<polygon fill="#000000" stroke="#000000" points="170.3831,-172.5001 180.3831,-169 170.383,-165.5001 170.3831,-172.5001"/>
</g>
</g>
</svg>
