<?xml version="1.0" encoding="UTF-8" standalone="no"?>
<!DOCTYPE svg PUBLIC "-//W3C//DTD SVG 1.1//EN"
 "http://www.w3.org/Graphics/SVG/1.1/DTD/svg11.dtd">
<!-- Generated by graphviz version 2.40.1 (20161225.0304)
 -->
<!-- Title: dependencies Pages: 1 -->
<svg width="580pt" height="284pt"
 viewBox="0.00 0.00 580.00 284.00" xmlns="http://www.w3.org/2000/svg" xmlns:xlink="http://www.w3.org/1999/xlink">
<g id="graph0" class="graph" transform="scale(1 1) rotate(0) translate(4 280)">
<title>dependencies</title>
<polygon fill="#ffffff" stroke="transparent" points="-4,4 -4,-280 576,-280 576,4 -4,4"/>
<text text-anchor="start" x="265.0091" y="-42.4" font-family="sans-serif" font-weight="bold" font-size="14.00" fill="#000000">Legend</text>
<polygon fill="#ffffb3" stroke="transparent" points="52,-10 52,-30 72,-30 72,-10 52,-10"/>
<text text-anchor="start" x="75.629" y="-15.4" font-family="sans-serif" font-size="14.00" fill="#000000"> &#160;Declarations</text>
<polygon fill="#8dd3c7" stroke="transparent" points="165,-10 165,-30 185,-30 185,-10 165,-10"/>
<text text-anchor="start" x="188.7251" y="-15.4" font-family="sans-serif" font-size="14.00" fill="#000000"> &#160;Module</text>
<polygon fill="#80b1d3" stroke="transparent" points="251,-10 251,-30 271,-30 271,-10 251,-10"/>
<text text-anchor="start" x="274.7812" y="-15.4" font-family="sans-serif" font-size="14.00" fill="#000000"> &#160;Bootstrap</text>
<polygon fill="#fdb462" stroke="transparent" points="348,-10 348,-30 368,-30 368,-10 348,-10"/>
<text text-anchor="start" x="371.6732" y="-15.4" font-family="sans-serif" font-size="14.00" fill="#000000"> &#160;Providers</text>
<polygon fill="#fb8072" stroke="transparent" points="444,-10 444,-30 464,-30 464,-10 444,-10"/>
<text text-anchor="start" x="467.7258" y="-15.4" font-family="sans-serif" font-size="14.00" fill="#000000"> &#160;Exports</text>
<g id="clust1" class="cluster">
<title>cluster_IngredientPickerModule</title>
<polygon fill="none" stroke="#000000" stroke-dasharray="1,5" points="8,-70 8,-268 564,-268 564,-70 8,-70"/>
</g>
<g id="clust2" class="cluster">
<title>cluster_IngredientPickerModule_declarations</title>
<polygon fill="none" stroke="#000000" points="366,-78 366,-130 556,-130 556,-78 366,-78"/>
</g>
<g id="clust4" class="cluster">
<title>cluster_IngredientPickerModule_imports</title>
<polygon fill="none" stroke="#000000" points="200,-78 200,-130 358,-130 358,-78 200,-78"/>
</g>
<g id="clust5" class="cluster">
<title>cluster_IngredientPickerModule_exports</title>
<polygon fill="none" stroke="#000000" points="182,-208 182,-260 376,-260 376,-208 182,-208"/>
</g>
<g id="clust7" class="cluster">
<title>cluster_IngredientPickerModule_providers</title>
<polygon fill="none" stroke="#000000" points="16,-78 16,-130 192,-130 192,-78 16,-78"/>
</g>
<!-- IngredientPickerComponent -->
<g id="node1" class="node">
<title>IngredientPickerComponent</title>
<polygon fill="#ffffb3" stroke="#000000" points="548.1274,-122 373.8726,-122 373.8726,-86 548.1274,-86 548.1274,-122"/>
<text text-anchor="middle" x="461" y="-99.8" font-family="Times,serif" font-size="14.00" fill="#000000">IngredientPickerComponent</text>
</g>
<!-- IngredientPickerModule -->
<g id="node2" class="node">
<title>IngredientPickerModule</title>
<polygon fill="#8dd3c7" stroke="#000000" points="355.3445,-187 352.3445,-191 331.3445,-191 328.3445,-187 202.6555,-187 202.6555,-151 355.3445,-151 355.3445,-187"/>
<text text-anchor="middle" x="279" y="-164.8" font-family="Times,serif" font-size="14.00" fill="#000000">IngredientPickerModule</text>
</g>
<!-- IngredientPickerComponent&#45;&gt;IngredientPickerModule -->
<g id="edge1" class="edge">
<title>IngredientPickerComponent&#45;&gt;IngredientPickerModule</title>
<path fill="none" stroke="#000000" d="M461,-122.1061C461,-141.3391 461,-169 461,-169 461,-169 365.3933,-169 365.3933,-169"/>
<polygon fill="#000000" stroke="#000000" points="365.3934,-165.5001 355.3933,-169 365.3933,-172.5001 365.3934,-165.5001"/>
</g>
<!-- IngredientPickerComponent  -->
<g id="node4" class="node">
<title>IngredientPickerComponent </title>
<polygon fill="#fb8072" stroke="#000000" points="368.127,-252 189.873,-252 189.873,-216 368.127,-216 368.127,-252"/>
<text text-anchor="middle" x="279" y="-229.8" font-family="Times,serif" font-size="14.00" fill="#000000">IngredientPickerComponent </text>
</g>
<!-- IngredientPickerModule&#45;&gt;IngredientPickerComponent  -->
<g id="edge3" class="edge">
<title>IngredientPickerModule&#45;&gt;IngredientPickerComponent </title>
<path fill="none" stroke="#000000" stroke-dasharray="5,2" d="M279,-187.1061C279,-187.1061 279,-205.991 279,-205.991"/>
<polygon fill="#000000" stroke="#000000" points="275.5001,-205.9909 279,-215.991 282.5001,-205.991 275.5001,-205.9909"/>
</g>
<!-- AutoCompleteModule -->
<g id="node3" class="node">
<title>AutoCompleteModule</title>
<polygon fill="#8dd3c7" stroke="#000000" points="349.9846,-122 346.9846,-126 325.9846,-126 322.9846,-122 208.0154,-122 208.0154,-86 349.9846,-86 349.9846,-122"/>
<text text-anchor="middle" x="279" y="-99.8" font-family="Times,serif" font-size="14.00" fill="#000000">AutoCompleteModule</text>
</g>
<!-- AutoCompleteModule&#45;&gt;IngredientPickerModule -->
<g id="edge2" class="edge">
<title>AutoCompleteModule&#45;&gt;IngredientPickerModule</title>
<path fill="none" stroke="#000000" d="M279,-122.1061C279,-122.1061 279,-140.991 279,-140.991"/>
<polygon fill="#000000" stroke="#000000" points="275.5001,-140.9909 279,-150.991 282.5001,-140.991 275.5001,-140.9909"/>
</g>
<!-- IngredientService -->
<g id="node5" class="node">
<title>IngredientService</title>
<ellipse fill="#fdb462" stroke="#000000" cx="104" cy="-104" rx="79.8527" ry="18"/>
<text text-anchor="middle" x="104" y="-99.8" font-family="Times,serif" font-size="14.00" fill="#000000">IngredientService</text>
</g>
<!-- IngredientService&#45;&gt;IngredientPickerModule -->
<g id="edge4" class="edge">
<title>IngredientService&#45;&gt;IngredientPickerModule</title>
<path fill="none" stroke="#000000" d="M104,-122.1061C104,-141.3391 104,-169 104,-169 104,-169 192.497,-169 192.497,-169"/>
<polygon fill="#000000" stroke="#000000" points="192.4971,-172.5001 202.497,-169 192.497,-165.5001 192.4971,-172.5001"/>
</g>
</g>
</svg>
