<?xml version="1.0" encoding="UTF-8" standalone="no"?>
<!DOCTYPE svg PUBLIC "-//W3C//DTD SVG 1.1//EN"
 "http://www.w3.org/Graphics/SVG/1.1/DTD/svg11.dtd">
<!-- Generated by graphviz version 2.40.1 (20161225.0304)
 -->
<!-- Title: dependencies Pages: 1 -->
<svg width="566pt" height="284pt"
 viewBox="0.00 0.00 566.00 284.00" xmlns="http://www.w3.org/2000/svg" xmlns:xlink="http://www.w3.org/1999/xlink">
<g id="graph0" class="graph" transform="scale(1 1) rotate(0) translate(4 280)">
<title>dependencies</title>
<polygon fill="#ffffff" stroke="transparent" points="-4,4 -4,-280 562,-280 562,4 -4,4"/>
<text text-anchor="start" x="258.0091" y="-42.4" font-family="sans-serif" font-weight="bold" font-size="14.00" fill="#000000">Legend</text>
<polygon fill="#ffffb3" stroke="transparent" points="45,-10 45,-30 65,-30 65,-10 45,-10"/>
<text text-anchor="start" x="68.629" y="-15.4" font-family="sans-serif" font-size="14.00" fill="#000000"> &#160;Declarations</text>
<polygon fill="#8dd3c7" stroke="transparent" points="158,-10 158,-30 178,-30 178,-10 158,-10"/>
<text text-anchor="start" x="181.7251" y="-15.4" font-family="sans-serif" font-size="14.00" fill="#000000"> &#160;Module</text>
<polygon fill="#80b1d3" stroke="transparent" points="244,-10 244,-30 264,-30 264,-10 244,-10"/>
<text text-anchor="start" x="267.7812" y="-15.4" font-family="sans-serif" font-size="14.00" fill="#000000"> &#160;Bootstrap</text>
<polygon fill="#fdb462" stroke="transparent" points="341,-10 341,-30 361,-30 361,-10 341,-10"/>
<text text-anchor="start" x="364.6732" y="-15.4" font-family="sans-serif" font-size="14.00" fill="#000000"> &#160;Providers</text>
<polygon fill="#fb8072" stroke="transparent" points="437,-10 437,-30 457,-30 457,-10 437,-10"/>
<text text-anchor="start" x="460.7258" y="-15.4" font-family="sans-serif" font-size="14.00" fill="#000000"> &#160;Exports</text>
<g id="clust1" class="cluster">
<title>cluster_IngredientPickerModule</title>
<polygon fill="none" stroke="#000000" stroke-dasharray="1,5" points="8,-70 8,-268 550,-268 550,-70 8,-70"/>
</g>
<g id="clust2" class="cluster">
<title>cluster_IngredientPickerModule_declarations</title>
<polygon fill="none" stroke="#000000" points="352,-78 352,-130 542,-130 542,-78 352,-78"/>
</g>
<g id="clust4" class="cluster">
<title>cluster_IngredientPickerModule_imports</title>
<polygon fill="none" stroke="#000000" points="186,-78 186,-130 344,-130 344,-78 186,-78"/>
</g>
<g id="clust5" class="cluster">
<title>cluster_IngredientPickerModule_exports</title>
<polygon fill="none" stroke="#000000" points="168,-208 168,-260 362,-260 362,-208 168,-208"/>
</g>
<g id="clust7" class="cluster">
<title>cluster_IngredientPickerModule_providers</title>
<polygon fill="none" stroke="#000000" points="16,-78 16,-130 178,-130 178,-78 16,-78"/>
</g>
<!-- IngredientPickerComponent -->
<g id="node1" class="node">
<title>IngredientPickerComponent</title>
<polygon fill="#ffffb3" stroke="#000000" points="534.1274,-122 359.8726,-122 359.8726,-86 534.1274,-86 534.1274,-122"/>
<text text-anchor="middle" x="447" y="-99.8" font-family="Times,serif" font-size="14.00" fill="#000000">IngredientPickerComponent</text>
</g>
<!-- IngredientPickerModule -->
<g id="node2" class="node">
<title>IngredientPickerModule</title>
<polygon fill="#8dd3c7" stroke="#000000" points="341.3445,-187 338.3445,-191 317.3445,-191 314.3445,-187 188.6555,-187 188.6555,-151 341.3445,-151 341.3445,-187"/>
<text text-anchor="middle" x="265" y="-164.8" font-family="Times,serif" font-size="14.00" fill="#000000">IngredientPickerModule</text>
</g>
<!-- IngredientPickerComponent&#45;&gt;IngredientPickerModule -->
<g id="edge1" class="edge">
<title>IngredientPickerComponent&#45;&gt;IngredientPickerModule</title>
<path fill="none" stroke="#000000" d="M447,-122.1061C447,-141.3391 447,-169 447,-169 447,-169 351.3933,-169 351.3933,-169"/>
<polygon fill="#000000" stroke="#000000" points="351.3934,-165.5001 341.3933,-169 351.3933,-172.5001 351.3934,-165.5001"/>
</g>
<!-- IngredientPickerComponent  -->
<g id="node4" class="node">
<title>IngredientPickerComponent </title>
<polygon fill="#fb8072" stroke="#000000" points="354.127,-252 175.873,-252 175.873,-216 354.127,-216 354.127,-252"/>
<text text-anchor="middle" x="265" y="-229.8" font-family="Times,serif" font-size="14.00" fill="#000000">IngredientPickerComponent </text>
</g>
<!-- IngredientPickerModule&#45;&gt;IngredientPickerComponent  -->
<g id="edge3" class="edge">
<title>IngredientPickerModule&#45;&gt;IngredientPickerComponent </title>
<path fill="none" stroke="#000000" stroke-dasharray="5,2" d="M265,-187.1061C265,-187.1061 265,-205.991 265,-205.991"/>
<polygon fill="#000000" stroke="#000000" points="261.5001,-205.9909 265,-215.991 268.5001,-205.991 261.5001,-205.9909"/>
</g>
<!-- AutoCompleteModule -->
<g id="node3" class="node">
<title>AutoCompleteModule</title>
<polygon fill="#8dd3c7" stroke="#000000" points="335.9846,-122 332.9846,-126 311.9846,-126 308.9846,-122 194.0154,-122 194.0154,-86 335.9846,-86 335.9846,-122"/>
<text text-anchor="middle" x="265" y="-99.8" font-family="Times,serif" font-size="14.00" fill="#000000">AutoCompleteModule</text>
</g>
<!-- AutoCompleteModule&#45;&gt;IngredientPickerModule -->
<g id="edge2" class="edge">
<title>AutoCompleteModule&#45;&gt;IngredientPickerModule</title>
<path fill="none" stroke="#000000" d="M265,-122.1061C265,-122.1061 265,-140.991 265,-140.991"/>
<polygon fill="#000000" stroke="#000000" points="261.5001,-140.9909 265,-150.991 268.5001,-140.991 261.5001,-140.9909"/>
</g>
<!-- SimpleFunction -->
<g id="node5" class="node">
<title>SimpleFunction</title>
<ellipse fill="#fdb462" stroke="#000000" cx="97" cy="-104" rx="72.9722" ry="18"/>
<text text-anchor="middle" x="97" y="-99.8" font-family="Times,serif" font-size="14.00" fill="#000000">SimpleFunction</text>
</g>
<!-- SimpleFunction&#45;&gt;IngredientPickerModule -->
<g id="edge4" class="edge">
<title>SimpleFunction&#45;&gt;IngredientPickerModule</title>
<path fill="none" stroke="#000000" d="M97,-122.1061C97,-141.3391 97,-169 97,-169 97,-169 178.3744,-169 178.3744,-169"/>
<polygon fill="#000000" stroke="#000000" points="178.3744,-172.5001 188.3744,-169 178.3743,-165.5001 178.3744,-172.5001"/>
</g>
</g>
</svg>
