<?xml version="1.0" encoding="UTF-8" standalone="no"?>
<!DOCTYPE svg PUBLIC "-//W3C//DTD SVG 1.1//EN"
 "http://www.w3.org/Graphics/SVG/1.1/DTD/svg11.dtd">
<!-- Generated by graphviz version 2.47.3 (20210619.1520)
 -->
<!-- Title: dependencies Pages: 1 -->
<svg width="580pt" height="247pt"
 viewBox="0.00 0.00 580.00 246.80" xmlns="http://www.w3.org/2000/svg" xmlns:xlink="http://www.w3.org/1999/xlink">
<g id="graph0" class="graph" transform="scale(1 1) rotate(0) translate(4 242.8)">
<title>dependencies</title>
<polygon fill="white" stroke="transparent" points="-4,4 -4,-242.8 576,-242.8 576,4 -4,4"/>
<text text-anchor="middle" x="286" y="-8.2" font-family="sans-serif" font-size="14.00">dependencies</text>
<g id="clust1" class="cluster">
<title>cluster_IngredientPickerModule</title>
<polygon fill="none" stroke="black" stroke-dasharray="1,5" points="8,-32.8 8,-230.8 564,-230.8 564,-32.8 8,-32.8"/>
</g>
<g id="clust7" class="cluster">
<title>cluster_IngredientPickerModule_providers</title>
<polygon fill="none" stroke="black" points="380,-40.8 380,-92.8 556,-92.8 556,-40.8 380,-40.8"/>
</g>
<g id="clust2" class="cluster">
<title>cluster_IngredientPickerModule_declarations</title>
<polygon fill="none" stroke="black" points="182,-40.8 182,-92.8 372,-92.8 372,-40.8 182,-40.8"/>
</g>
<g id="clust4" class="cluster">
<title>cluster_IngredientPickerModule_imports</title>
<polygon fill="none" stroke="black" points="16,-40.8 16,-92.8 174,-92.8 174,-40.8 16,-40.8"/>
</g>
<g id="clust5" class="cluster">
<title>cluster_IngredientPickerModule_exports</title>
<polygon fill="none" stroke="black" points="180,-170.8 180,-222.8 374,-222.8 374,-170.8 180,-170.8"/>
</g>
<!-- IngredientPickerComponent -->
<g id="node1" class="node">
<title>IngredientPickerComponent</title>
<polygon fill="#ffffb3" stroke="black" points="364.13,-84.8 189.87,-84.8 189.87,-48.8 364.13,-48.8 364.13,-84.8"/>
<text text-anchor="middle" x="277" y="-62.6" font-family="Times,serif" font-size="14.00">IngredientPickerComponent</text>
</g>
<!-- IngredientPickerModule -->
<g id="node2" class="node">
<title>IngredientPickerModule</title>
<polygon fill="#8dd3c7" stroke="black" points="353.34,-149.8 350.34,-153.8 329.34,-153.8 326.34,-149.8 200.66,-149.8 200.66,-113.8 353.34,-113.8 353.34,-149.8"/>
<text text-anchor="middle" x="277" y="-127.6" font-family="Times,serif" font-size="14.00">IngredientPickerModule</text>
</g>
<!-- IngredientPickerComponent&#45;&gt;IngredientPickerModule -->
<g id="edge1" class="edge">
<title>IngredientPickerComponent&#45;&gt;IngredientPickerModule</title>
<path fill="none" stroke="black" d="M277,-84.91C277,-84.91 277,-103.79 277,-103.79"/>
<polygon fill="black" stroke="black" points="273.5,-103.79 277,-113.79 280.5,-103.79 273.5,-103.79"/>
</g>
<!-- IngredientPickerComponent  -->
<g id="node4" class="node">
<title>IngredientPickerComponent </title>
<polygon fill="#fb8072" stroke="black" points="366.13,-214.8 187.87,-214.8 187.87,-178.8 366.13,-178.8 366.13,-214.8"/>
<text text-anchor="middle" x="277" y="-192.6" font-family="Times,serif" font-size="14.00">IngredientPickerComponent </text>
</g>
<!-- IngredientPickerModule&#45;&gt;IngredientPickerComponent  -->
<g id="edge3" class="edge">
<title>IngredientPickerModule&#45;&gt;IngredientPickerComponent </title>
<path fill="none" stroke="black" stroke-dasharray="5,2" d="M277,-149.91C277,-149.91 277,-168.79 277,-168.79"/>
<polygon fill="black" stroke="black" points="273.5,-168.79 277,-178.79 280.5,-168.79 273.5,-168.79"/>
</g>
<!-- AutoCompleteModule -->
<g id="node3" class="node">
<title>AutoCompleteModule</title>
<polygon fill="#8dd3c7" stroke="black" points="165.98,-84.8 162.98,-88.8 141.98,-88.8 138.98,-84.8 24.02,-84.8 24.02,-48.8 165.98,-48.8 165.98,-84.8"/>
<text text-anchor="middle" x="95" y="-62.6" font-family="Times,serif" font-size="14.00">AutoCompleteModule</text>
</g>
<!-- AutoCompleteModule&#45;&gt;IngredientPickerModule -->
<g id="edge2" class="edge">
<title>AutoCompleteModule&#45;&gt;IngredientPickerModule</title>
<path fill="none" stroke="black" d="M95,-84.91C95,-104.14 95,-131.8 95,-131.8 95,-131.8 190.61,-131.8 190.61,-131.8"/>
<polygon fill="black" stroke="black" points="190.61,-135.3 200.61,-131.8 190.61,-128.3 190.61,-135.3"/>
</g>
<!-- IngredientService -->
<g id="node5" class="node">
<title>IngredientService</title>
<ellipse fill="#fdb462" stroke="black" cx="468" cy="-66.8" rx="79.85" ry="18"/>
<text text-anchor="middle" x="468" y="-62.6" font-family="Times,serif" font-size="14.00">IngredientService</text>
</g>
<!-- IngredientService&#45;&gt;IngredientPickerModule -->
<g id="edge4" class="edge">
<title>IngredientService&#45;&gt;IngredientPickerModule</title>
<path fill="none" stroke="black" d="M468,-84.91C468,-104.14 468,-131.8 468,-131.8 468,-131.8 363.59,-131.8 363.59,-131.8"/>
<polygon fill="black" stroke="black" points="363.59,-128.3 353.59,-131.8 363.59,-135.3 363.59,-128.3"/>
</g>
</g>
</svg>
